<svg width="351" height="45" viewBox="0 0 351 45" fill="none" xmlns="http://www.w3.org/2000/svg">
<path d="M15.3202 15.4251V0.136505H16.1293V12.8042L21.0949 0.136505H21.8375V15.4251H21.0284V2.77925L16.0628 15.4251H15.3202Z" fill="#165475" fill-opacity="0.5"/>
<path d="M23.9016 15.4251V0.136505H24.5777L28.1245 12.0616H27.7699L31.2834 0.136505H31.9596V15.4251H31.1726V2.56084H31.361L28.1245 13.4813H27.7366L24.4779 2.56084H24.6885V15.4251H23.9016Z" fill="#165475" fill-opacity="0.5"/>
<path d="M34.7515 6.97269H38.8525V8.34866H34.7515V6.97269ZM34.8402 14.0273H39.5065V15.4251H34.02V0.136505H39.3402V1.53432H34.8402V14.0273Z" fill="#165475" fill-opacity="0.5"/>
<path d="M40.772 15.4251V0.136505H41.5812V6.92901H43.5873V8.39235H41.5812V15.4251H40.772ZM47.0344 15.5561C46.4802 15.5561 45.9667 15.3669 45.4938 14.9883C45.0283 14.5951 44.6181 14.0491 44.2635 13.3502C43.9162 12.6513 43.6465 11.8286 43.4543 10.8822C43.2622 9.93577 43.1662 8.90197 43.1662 7.7808C43.1662 6.65964 43.2622 5.62584 43.4543 4.6794C43.6465 3.73296 43.9162 2.91029 44.2635 2.21139C44.6181 1.51248 45.0283 0.973738 45.4938 0.595164C45.9667 0.202028 46.4802 0.00546046 47.0344 0.00546046C47.5886 0.00546046 48.1022 0.202028 48.5751 0.595164C49.048 0.973738 49.4581 1.51248 49.8054 2.21139C50.1527 2.91029 50.4224 3.73296 50.6145 4.6794C50.814 5.62584 50.9138 6.65964 50.9138 7.7808C50.9138 8.90197 50.814 9.93577 50.6145 10.8822C50.4224 11.8286 50.1527 12.6513 49.8054 13.3502C49.4581 14.0491 49.048 14.5951 48.5751 14.9883C48.1022 15.3669 47.5886 15.5561 47.0344 15.5561ZM47.0344 14.1146C47.4704 14.1146 47.8731 13.9618 48.2426 13.656C48.6194 13.3357 48.9446 12.8916 49.218 12.3237C49.4914 11.7558 49.7057 11.0933 49.8608 10.3362C50.016 9.56447 50.0936 8.71268 50.0936 7.7808C50.0936 6.84893 50.016 6.00441 49.8608 5.24726C49.7057 4.47555 49.4914 3.80577 49.218 3.23791C48.9446 2.67004 48.6194 2.23323 48.2426 1.92745C47.8731 1.60712 47.4704 1.44696 47.0344 1.44696C46.6059 1.44696 46.2031 1.60712 45.8263 1.92745C45.4568 2.23323 45.1354 2.67004 44.862 3.23791C44.5886 3.80577 44.3743 4.47555 44.2191 5.24726C44.064 6.00441 43.9864 6.84893 43.9864 7.7808C43.9864 8.71268 44.064 9.56447 44.2191 10.3362C44.3743 11.0933 44.5886 11.7558 44.862 12.3237C45.1354 12.8916 45.4568 13.3357 45.8263 13.656C46.2031 13.9618 46.6059 14.1146 47.0344 14.1146Z" fill="#165475" fill-opacity="0.5"/>
<path d="M53.7516 15.4251V1.0975L53.9733 1.53432H51.025V0.136505H57.2874V1.53432H54.3501L54.5607 1.0975V15.4251H53.7516Z" fill="#165475" fill-opacity="0.5"/>
<path d="M61.4563 15.5561C60.8726 15.5561 60.3331 15.3669 59.8381 14.9883C59.343 14.5951 58.9144 14.0491 58.5523 13.3502C58.1903 12.6513 57.9058 11.8286 57.6989 10.8822C57.4994 9.93577 57.3996 8.90197 57.3996 7.7808C57.3996 6.65964 57.4994 5.62584 57.6989 4.6794C57.9058 3.73296 58.1903 2.91029 58.5523 2.21139C58.9218 1.51248 59.3541 0.973738 59.8491 0.595164C60.3442 0.202028 60.8836 0.00546046 61.4674 0.00546046C62.029 0.00546046 62.5573 0.194748 63.0524 0.573323C63.5475 0.937337 63.965 1.49064 64.3049 2.23323L63.7839 3.25975C63.4662 2.61908 63.1152 2.16042 62.731 1.88377C62.3467 1.59256 61.9329 1.44696 61.4896 1.44696C61.024 1.44696 60.5918 1.60712 60.1927 1.92745C59.7937 2.23323 59.4464 2.67732 59.1509 3.25975C58.8553 3.82761 58.6225 4.49739 58.4526 5.2691C58.29 6.02625 58.2087 6.86349 58.2087 7.7808C58.2087 8.69812 58.29 9.54263 58.4526 10.3143C58.6225 11.0715 58.8553 11.7413 59.1509 12.3237C59.4464 12.8916 59.7937 13.3357 60.1927 13.656C60.5918 13.9618 61.024 14.1146 61.4896 14.1146C61.9329 14.1146 62.3467 13.969 62.731 13.6778C63.1152 13.3866 63.4662 12.9207 63.7839 12.28L64.3049 13.3065C63.965 14.0491 63.5475 14.6097 63.0524 14.9883C62.5573 15.3669 62.0253 15.5561 61.4563 15.5561Z" fill="#165475" fill-opacity="0.5"/>
<path d="M69.9382 15.4251V10.358L70.1598 10.7948H67.6216C67.0009 10.7948 66.4689 10.5837 66.0256 10.1615C65.5896 9.7392 65.2534 9.14221 65.0169 8.3705C64.7879 7.58423 64.6733 6.64508 64.6733 5.55303C64.6733 4.38819 64.7989 3.40535 65.0502 2.60452C65.3014 1.78913 65.6561 1.17759 66.1142 0.769891C66.5798 0.347634 67.1192 0.136505 67.7325 0.136505H70.7473V15.4251H69.9382ZM64.6733 15.4251L66.5798 10.0522H67.4221L65.549 15.4251H64.6733ZM69.9382 9.89936V1.07566L70.1598 1.53432H67.7657C67.0416 1.53432 66.48 1.87649 66.081 2.56084C65.6893 3.23062 65.4935 4.21346 65.4935 5.50935C65.4935 6.76156 65.6783 7.72984 66.0477 8.41419C66.4172 9.08397 66.964 9.41887 67.6881 9.41887H70.1598L69.9382 9.89936Z" fill="#165475" fill-opacity="0.5"/>
<path d="M75.1602 15.4251V0.136505H81.6887V15.4251H80.8795V1.0975L81.0901 1.53432H75.7588L75.9694 1.0975V15.4251H75.1602Z" fill="#165475" fill-opacity="0.5"/>
<path d="M83.7524 15.4251V0.136505H86.6564C87.314 0.136505 87.8793 0.347634 88.3522 0.769891C88.8251 1.17759 89.1872 1.77457 89.4384 2.56084C89.6971 3.33255 89.8264 4.27171 89.8264 5.37831C89.8264 6.45579 89.6971 7.38767 89.4384 8.17394C89.1872 8.94565 88.8251 9.54263 88.3522 9.96489C87.8793 10.3871 87.314 10.5983 86.6564 10.5983H84.2068L84.5726 9.83384V15.4251H83.7524ZM84.5726 9.96489L84.2068 9.17862H86.6342C87.4101 9.17862 87.9975 8.851 88.3966 8.19578C88.803 7.52599 89.0062 6.58684 89.0062 5.37831C89.0062 4.15522 88.803 3.20878 88.3966 2.539C87.9975 1.86921 87.4101 1.53432 86.6342 1.53432H84.2068L84.5726 0.769891V9.96489Z" fill="#165475" fill-opacity="0.5"/>
<path d="M94.4593 15.5561C93.8755 15.5561 93.3324 15.3669 92.8299 14.9883C92.3349 14.5951 91.9026 14.0491 91.5331 13.3502C91.1711 12.6368 90.8866 11.8141 90.6797 10.8822C90.4802 9.93577 90.3804 8.90197 90.3804 7.7808C90.3804 6.65964 90.4802 5.63312 90.6797 4.70124C90.8866 3.75481 91.1711 2.93213 91.5331 2.23323C91.9026 1.51976 92.3349 0.973738 92.8299 0.595164C93.325 0.202028 93.8681 0.00546046 94.4593 0.00546046C95.043 0.00546046 95.5825 0.202028 96.0775 0.595164C96.5726 0.973738 97.0012 1.51248 97.3633 2.21139C97.7327 2.91029 98.0172 3.73296 98.2167 4.6794C98.4236 5.62584 98.5271 6.65964 98.5271 7.7808C98.5271 8.90197 98.4236 9.93577 98.2167 10.8822C98.0172 11.8286 97.7327 12.6513 97.3633 13.3502C97.0012 14.0491 96.5726 14.5951 96.0775 14.9883C95.5825 15.3669 95.043 15.5561 94.4593 15.5561ZM94.4593 14.1146C94.9248 14.1146 95.3534 13.9618 95.745 13.656C96.144 13.3357 96.4876 12.8916 96.7758 12.3237C97.0714 11.7413 97.3005 11.0715 97.463 10.3143C97.6256 9.54263 97.7069 8.69812 97.7069 7.7808C97.7069 6.86349 97.6256 6.02625 97.463 5.2691C97.3005 4.49739 97.0714 3.82761 96.7758 3.25975C96.4876 2.67732 96.144 2.23323 95.745 1.92745C95.3534 1.60712 94.9248 1.44696 94.4593 1.44696C93.9938 1.44696 93.5615 1.60712 93.1625 1.92745C92.7635 2.23323 92.4162 2.67732 92.1206 3.25975C91.8324 3.82761 91.6033 4.49739 91.4334 5.2691C91.2708 6.02625 91.1895 6.86349 91.1895 7.7808C91.1895 8.68356 91.2708 9.52079 91.4334 10.2925C91.6033 11.0642 91.8324 11.7413 92.1206 12.3237C92.4162 12.8916 92.7635 13.3357 93.1625 13.656C93.5615 13.9618 93.9938 14.1146 94.4593 14.1146Z" fill="#165475" fill-opacity="0.5"/>
<path d="M101.363 15.4251V1.0975L101.584 1.53432H98.6359V0.136505H104.898V1.53432H101.961L102.172 1.0975V15.4251H101.363Z" fill="#165475" fill-opacity="0.5"/>
<path d="M105.784 15.4251V0.136505H106.593V12.8042L111.559 0.136505H112.301V15.4251H111.492V2.77925L106.526 15.4251H105.784Z" fill="#165475" fill-opacity="0.5"/>
<path d="M114.365 15.4251V0.136505H117.591C118.411 0.136505 119.054 0.471398 119.519 1.14118C119.992 1.79641 120.229 2.76469 120.229 4.04602C120.229 5.31279 120.003 6.27378 119.552 6.92901C119.102 7.56967 118.511 7.89001 117.779 7.89001L117.967 7.34399C118.832 7.34399 119.49 7.67888 119.94 8.34866C120.391 9.01845 120.616 10.0013 120.616 11.2972C120.616 12.6076 120.38 13.6269 119.907 14.3549C119.442 15.0684 118.74 15.4251 117.801 15.4251H114.365ZM115.174 14.1365H117.801C118.459 14.1365 118.958 13.8962 119.298 13.4157C119.637 12.9352 119.807 12.1927 119.807 11.188C119.807 10.1979 119.637 9.46983 119.298 9.00389C118.958 8.53795 118.459 8.30498 117.801 8.30498H115.174V14.1365ZM115.174 7.06005H117.546C118.145 7.06005 118.603 6.82708 118.921 6.36115C119.246 5.88065 119.408 5.17446 119.408 4.24258C119.408 3.31071 119.246 2.6118 118.921 2.14586C118.603 1.66536 118.145 1.42512 117.546 1.42512H115.174V7.06005Z" fill="#165475" fill-opacity="0.5"/>
<path d="M125.516 15.5561C124.932 15.5561 124.389 15.3669 123.886 14.9883C123.391 14.5951 122.959 14.0491 122.59 13.3502C122.228 12.6368 121.943 11.8141 121.736 10.8822C121.537 9.93577 121.437 8.90197 121.437 7.7808C121.437 6.65964 121.537 5.63312 121.736 4.70124C121.943 3.75481 122.228 2.93213 122.59 2.23323C122.959 1.51976 123.391 0.973738 123.886 0.595164C124.382 0.202028 124.925 0.00546046 125.516 0.00546046C126.1 0.00546046 126.639 0.202028 127.134 0.595164C127.629 0.973738 128.058 1.51248 128.42 2.21139C128.789 2.91029 129.074 3.73296 129.273 4.6794C129.48 5.62584 129.584 6.65964 129.584 7.7808C129.584 8.90197 129.48 9.93577 129.273 10.8822C129.074 11.8286 128.789 12.6513 128.42 13.3502C128.058 14.0491 127.629 14.5951 127.134 14.9883C126.639 15.3669 126.1 15.5561 125.516 15.5561ZM125.516 14.1146C125.981 14.1146 126.41 13.9618 126.802 13.656C127.201 13.3357 127.544 12.8916 127.832 12.3237C128.128 11.7413 128.357 11.0715 128.52 10.3143C128.682 9.54263 128.763 8.69812 128.763 7.7808C128.763 6.86349 128.682 6.02625 128.52 5.2691C128.357 4.49739 128.128 3.82761 127.832 3.25975C127.544 2.67732 127.201 2.23323 126.802 1.92745C126.41 1.60712 125.981 1.44696 125.516 1.44696C125.05 1.44696 124.618 1.60712 124.219 1.92745C123.82 2.23323 123.473 2.67732 123.177 3.25975C122.889 3.82761 122.66 4.49739 122.49 5.2691C122.327 6.02625 122.246 6.86349 122.246 7.7808C122.246 8.68356 122.327 9.52079 122.49 10.2925C122.66 11.0642 122.889 11.7413 123.177 12.3237C123.473 12.8916 123.82 13.3357 124.219 13.656C124.618 13.9618 125.05 14.1146 125.516 14.1146Z" fill="#165475" fill-opacity="0.5"/>
<path d="M130.987 15.4251V0.136505H137.515V15.4251H136.706V1.0975L136.917 1.53432H131.585L131.796 1.0975V15.4251H130.987Z" fill="#165475" fill-opacity="0.5"/>
<path d="M142.982 15.5561C142.398 15.5561 141.855 15.3669 141.352 14.9883C140.857 14.5951 140.425 14.0491 140.055 13.3502C139.693 12.6368 139.409 11.8141 139.202 10.8822C139.002 9.93577 138.903 8.90197 138.903 7.7808C138.903 6.65964 139.002 5.63312 139.202 4.70124C139.409 3.75481 139.693 2.93213 140.055 2.23323C140.425 1.51976 140.857 0.973738 141.352 0.595164C141.847 0.202028 142.39 0.00546046 142.982 0.00546046C143.565 0.00546046 144.105 0.202028 144.6 0.595164C145.095 0.973738 145.524 1.51248 145.886 2.21139C146.255 2.91029 146.54 3.73296 146.739 4.6794C146.946 5.62584 147.049 6.65964 147.049 7.7808C147.049 8.90197 146.946 9.93577 146.739 10.8822C146.54 11.8286 146.255 12.6513 145.886 13.3502C145.524 14.0491 145.095 14.5951 144.6 14.9883C144.105 15.3669 143.565 15.5561 142.982 15.5561ZM142.982 14.1146C143.447 14.1146 143.876 13.9618 144.267 13.656C144.666 13.3357 145.01 12.8916 145.298 12.3237C145.594 11.7413 145.823 11.0715 145.985 10.3143C146.148 9.54263 146.229 8.69812 146.229 7.7808C146.229 6.86349 146.148 6.02625 145.985 5.2691C145.823 4.49739 145.594 3.82761 145.298 3.25975C145.01 2.67732 144.666 2.23323 144.267 1.92745C143.876 1.60712 143.447 1.44696 142.982 1.44696C142.516 1.44696 142.084 1.60712 141.685 1.92745C141.286 2.23323 140.938 2.67732 140.643 3.25975C140.355 3.82761 140.126 4.49739 139.956 5.2691C139.793 6.02625 139.712 6.86349 139.712 7.7808C139.712 8.68356 139.793 9.52079 139.956 10.2925C140.126 11.0642 140.355 11.7413 140.643 12.3237C140.938 12.8916 141.286 13.3357 141.685 13.656C142.084 13.9618 142.516 14.1146 142.982 14.1146Z" fill="#165475" fill-opacity="0.5"/>
<path d="M153.762 15.4251L150.78 7.80264L151.445 7.01637L154.704 15.4251H153.762ZM148.452 15.4251V0.136505H149.251V15.4251H148.452ZM149.007 8.41419V6.99453H151.434V8.41419H149.007ZM151.512 7.95553L150.758 7.69344L153.651 0.136505H154.538L151.512 7.95553Z" fill="#165475" fill-opacity="0.5"/>
<path d="M154.182 15.4251L157.729 0.136505H158.538L162.085 15.4251H161.22L157.962 1.07566H158.294L155.035 15.4251H154.182ZM155.579 11.3409L155.822 10.0304H160.334L160.577 11.3409H155.579Z" fill="#165475" fill-opacity="0.5"/>
<path d="M162.097 13.5905L162.397 12.4329C162.737 13.0153 163.117 13.4521 163.538 13.7434C163.967 14.02 164.395 14.1656 164.824 14.1802C165.253 14.1802 165.644 14.0564 165.999 13.8089C166.361 13.5613 166.653 13.1973 166.875 12.7168C167.096 12.2218 167.207 11.6248 167.207 10.9259C167.207 10.0377 167.026 9.35334 166.664 8.87284C166.309 8.39235 165.814 8.1521 165.179 8.1521H163.516V6.84165H165.134C165.681 6.84165 166.106 6.61596 166.409 6.16458C166.719 5.69864 166.875 5.05798 166.875 4.24258C166.875 3.66016 166.786 3.1651 166.609 2.75741C166.439 2.33515 166.202 2.01482 165.899 1.79641C165.604 1.56344 165.271 1.43968 164.902 1.42512C164.532 1.39599 164.148 1.49064 163.749 1.70905C163.357 1.91289 162.977 2.24051 162.607 2.69188L162.341 1.35959C162.799 0.820852 163.276 0.449557 163.771 0.245709C164.266 0.027301 164.746 -0.0455017 165.212 0.027301C165.678 0.100104 166.095 0.311232 166.464 0.660685C166.841 1.01014 167.141 1.4688 167.362 2.03666C167.584 2.60452 167.695 3.28159 167.695 4.06786C167.695 4.79589 167.599 5.43655 167.407 5.98985C167.222 6.54315 166.96 6.97269 166.62 7.27846C166.287 7.56967 165.892 7.71528 165.434 7.71528L165.478 7.23478C165.995 7.23478 166.442 7.39495 166.819 7.71528C167.203 8.03561 167.499 8.49427 167.706 9.09125C167.92 9.67367 168.027 10.358 168.027 11.1443C168.027 11.8869 167.931 12.5494 167.739 13.1318C167.554 13.6997 167.296 14.1802 166.963 14.5733C166.638 14.9519 166.272 15.2285 165.866 15.4033C165.46 15.5634 165.035 15.6071 164.591 15.5343C164.148 15.4615 163.712 15.2722 163.283 14.9664C162.855 14.6461 162.459 14.1874 162.097 13.5905Z" fill="#165475" fill-opacity="0.5"/>
<path d="M168.368 15.4251L171.915 0.136505H172.724L176.271 15.4251H175.406L172.148 1.07566H172.48L169.221 15.4251H168.368ZM169.765 11.3409L170.008 10.0304H174.52L174.763 11.3409H169.765Z" fill="#165475" fill-opacity="0.5"/>
<path d="M182.878 0.136505H183.688V15.4251H182.878V0.136505ZM178.024 15.4251H177.203V0.136505H178.024V15.4251ZM182.956 8.3705H177.935V6.95085H182.956V8.3705Z" fill="#165475" fill-opacity="0.5"/>
<path d="M185.752 15.4251V0.136505H186.561V12.8042L191.527 0.136505H192.27V15.4251H191.461V2.77925L186.495 15.4251H185.752Z" fill="#165475" fill-opacity="0.5"/>
<path d="M199.022 15.4251V10.358L199.244 10.7948H196.706C196.085 10.7948 195.553 10.5837 195.11 10.1615C194.674 9.7392 194.337 9.14221 194.101 8.3705C193.872 7.58423 193.757 6.64508 193.757 5.55303C193.757 4.38819 193.883 3.40535 194.134 2.60452C194.385 1.78913 194.74 1.17759 195.198 0.769891C195.664 0.347634 196.203 0.136505 196.816 0.136505H199.831V15.4251H199.022ZM193.757 15.4251L195.664 10.0522H196.506L194.633 15.4251H193.757ZM199.022 9.89936V1.07566L199.244 1.53432H196.85C196.126 1.53432 195.564 1.87649 195.165 2.56084C194.773 3.23062 194.578 4.21346 194.578 5.50935C194.578 6.76156 194.762 7.72984 195.132 8.41419C195.501 9.08397 196.048 9.41887 196.772 9.41887H199.244L199.022 9.89936Z" fill="#165475" fill-opacity="0.5"/>
<path d="M201.765 15.5343C201.602 15.5343 201.462 15.4178 201.343 15.1848C201.233 14.9519 201.177 14.6679 201.177 14.3331C201.177 13.9836 201.233 13.6997 201.343 13.4813C201.462 13.2629 201.602 13.1537 201.765 13.1537C201.927 13.1537 202.064 13.2629 202.175 13.4813C202.293 13.6997 202.352 13.9836 202.352 14.3331C202.352 14.6679 202.293 14.9519 202.175 15.1848C202.064 15.4178 201.927 15.5343 201.765 15.5343Z" fill="#165475" fill-opacity="0.5"/>
<path d="M206.039 15.4251V0.136505H212.567V15.4251H211.758V1.0975L211.969 1.53432H206.637L206.848 1.0975V15.4251H206.039Z" fill="#165475" fill-opacity="0.5"/>
<path d="M215.363 6.97269H219.464V8.34866H215.363V6.97269ZM215.451 14.0273H220.118V15.4251H214.631V0.136505H219.951V1.53432H215.451V14.0273Z" fill="#165475" fill-opacity="0.5"/>
<path d="M221.383 15.4251V0.136505H224.287C224.945 0.136505 225.51 0.347634 225.983 0.769891C226.456 1.17759 226.818 1.77457 227.069 2.56084C227.328 3.33255 227.457 4.27171 227.457 5.37831C227.457 6.45579 227.328 7.38767 227.069 8.17394C226.818 8.94565 226.456 9.54263 225.983 9.96489C225.51 10.3871 224.945 10.5983 224.287 10.5983H221.838L222.203 9.83384V15.4251H221.383ZM222.203 9.96489L221.838 9.17862H224.265C225.041 9.17862 225.628 8.851 226.027 8.19578C226.434 7.52599 226.637 6.58684 226.637 5.37831C226.637 4.15522 226.434 3.20878 226.027 2.539C225.628 1.86921 225.041 1.53432 224.265 1.53432H221.838L222.203 0.769891V9.96489Z" fill="#165475" fill-opacity="0.5"/>
<path d="M229.311 6.97269H233.412V8.34866H229.311V6.97269ZM229.399 14.0273H234.066V15.4251H228.579V0.136505H233.899V1.53432H229.399V14.0273Z" fill="#165475" fill-opacity="0.5"/>
<path d="M240.485 14.6607V1.53432H236.772L236.705 5.24726C236.683 6.39755 236.646 7.50415 236.595 8.56707C236.55 9.61543 236.476 10.5619 236.373 11.4064C236.277 12.2363 236.144 12.9134 235.974 13.4376C235.811 13.9618 235.597 14.2675 235.331 14.3549L234.433 14.0273C234.729 14.0564 234.973 13.8453 235.165 13.3939C235.364 12.9425 235.516 12.3091 235.619 11.4937C235.73 10.6784 235.811 9.72464 235.863 8.63259C235.915 7.54055 235.952 6.36115 235.974 5.09438L236.063 0.136505H241.294V14.6607H240.485ZM234.145 18.8541L234.156 14.0273H242.458V18.8541H241.693V15.4251H234.921L234.91 18.8541H234.145Z" fill="#165475" fill-opacity="0.5"/>
<path d="M245.924 15.4251V0.136505H252.452V15.4251H251.643V1.0975L251.853 1.53432H246.522L246.733 1.0975V15.4251H245.924Z" fill="#165475" fill-opacity="0.5"/>
<path d="M254.516 15.4251V0.136505H257.42C258.077 0.136505 258.643 0.347634 259.116 0.769891C259.588 1.17759 259.951 1.77457 260.202 2.56084C260.46 3.33255 260.59 4.27171 260.59 5.37831C260.59 6.45579 260.46 7.38767 260.202 8.17394C259.951 8.94565 259.588 9.54263 259.116 9.96489C258.643 10.3871 258.077 10.5983 257.42 10.5983H254.97L255.336 9.83384V15.4251H254.516ZM255.336 9.96489L254.97 9.17862H257.398C258.173 9.17862 258.761 8.851 259.16 8.19578C259.566 7.52599 259.77 6.58684 259.77 5.37831C259.77 4.15522 259.566 3.20878 259.16 2.539C258.761 1.86921 258.173 1.53432 257.398 1.53432H254.97L255.336 0.769891V9.96489Z" fill="#165475" fill-opacity="0.5"/>
<path d="M261.712 15.4251V0.136505H262.521V12.8042L267.486 0.136505H268.229V15.4251H267.42V2.77925L262.454 15.4251H261.712Z" fill="#165475" fill-opacity="0.5"/>
<path d="M270.293 15.4251V0.136505H270.969L274.516 12.0616H274.161L277.675 0.136505H278.351V15.4251H277.564V2.56084H277.752L274.516 13.4813H274.128L270.869 2.56084H271.08V15.4251H270.293Z" fill="#165475" fill-opacity="0.5"/>
<path d="M294.668 0.136505H295.477V15.4251H294.668V0.136505ZM289.813 15.4251H288.993V0.136505H289.813V15.4251ZM294.745 8.3705H289.724V6.95085H294.745V8.3705Z" fill="#165475" fill-opacity="0.5"/>
<path d="M298.273 6.97269H302.374V8.34866H298.273V6.97269ZM298.362 14.0273H303.028V15.4251H297.542V0.136505H302.862V1.53432H298.362V14.0273Z" fill="#165475" fill-opacity="0.5"/>
<path d="M309.969 0.136505H310.778V15.4251H309.969V0.136505ZM305.114 15.4251H304.294V0.136505H305.114V15.4251ZM310.046 8.3705H305.025V6.95085H310.046V8.3705Z" fill="#165475" fill-opacity="0.5"/>
<path d="M312.843 15.4251V0.136505H313.652V12.8042L318.617 0.136505H319.36V15.4251H318.551V2.77925L313.585 15.4251H312.843Z" fill="#165475" fill-opacity="0.5"/>
<path d="M322.155 6.97269H326.256V8.34866H322.155V6.97269ZM322.244 14.0273H326.91V15.4251H321.424V0.136505H326.744V1.53432H322.244V14.0273Z" fill="#165475" fill-opacity="0.5"/>
<path d="M328.176 15.4251V0.136505H328.852L332.399 12.0616H332.044L335.558 0.136505H336.234V15.4251H335.447V2.56084H335.635L332.399 13.4813H332.011L328.752 2.56084H328.963V15.4251H328.176Z" fill="#165475" fill-opacity="0.5"/>
<path d="M5.67495 25.3567H6.48408V40.6453H5.67495V25.3567ZM0.820208 40.6453H0V25.3567H0.820208V40.6453ZM5.75254 33.5907H0.731537V32.1711H5.75254V33.5907Z" fill="#165475" fill-opacity="0.5"/>
<path d="M9.28042 32.1929H13.3815V33.5689H9.28042V32.1929ZM9.36909 39.2475H14.0354V40.6453H8.54888V25.3567H13.8692V26.7545H9.36909V39.2475Z" fill="#165475" fill-opacity="0.5"/>
<path d="M18.6821 40.7764C18.0983 40.7764 17.5552 40.5871 17.0527 40.2085C16.5577 39.8154 16.1254 39.2694 15.7559 38.5704C15.3938 37.857 15.1094 37.0343 14.9025 36.1024C14.703 35.156 14.6032 34.1222 14.6032 33.001C14.6032 31.8799 14.703 30.8533 14.9025 29.9215C15.1094 28.975 15.3938 28.1524 15.7559 27.4535C16.1254 26.74 16.5577 26.194 17.0527 25.8154C17.5478 25.4223 18.0909 25.2257 18.6821 25.2257C19.2658 25.2257 19.8052 25.4223 20.3003 25.8154C20.7954 26.194 21.224 26.7327 21.586 27.4316C21.9555 28.1305 22.24 28.9532 22.4395 29.8996C22.6464 30.8461 22.7499 31.8799 22.7499 33.001C22.7499 34.1222 22.6464 35.156 22.4395 36.1024C22.24 37.0489 21.9555 37.8715 21.586 38.5704C21.224 39.2694 20.7954 39.8154 20.3003 40.2085C19.8052 40.5871 19.2658 40.7764 18.6821 40.7764ZM18.6821 39.3349C19.1476 39.3349 19.5762 39.182 19.9678 38.8762C20.3668 38.5559 20.7104 38.1118 20.9986 37.5439C21.2942 36.9615 21.5232 36.2917 21.6858 35.5346C21.8484 34.7629 21.9296 33.9183 21.9296 33.001C21.9296 32.0837 21.8484 31.2465 21.6858 30.4893C21.5232 29.7176 21.2942 29.0478 20.9986 28.48C20.7104 27.8976 20.3668 27.4535 19.9678 27.1477C19.5762 26.8273 19.1476 26.6672 18.6821 26.6672C18.2165 26.6672 17.7843 26.8273 17.3853 27.1477C16.9862 27.4535 16.6389 27.8976 16.3434 28.48C16.0552 29.0478 15.8261 29.7176 15.6562 30.4893C15.4936 31.2465 15.4123 32.0837 15.4123 33.001C15.4123 33.9038 15.4936 34.741 15.6562 35.5127C15.8261 36.2844 16.0552 36.9615 16.3434 37.5439C16.6389 38.1118 16.9862 38.5559 17.3853 38.8762C17.7843 39.182 18.2165 39.3349 18.6821 39.3349Z" fill="#165475" fill-opacity="0.5"/>
<path d="M24.1529 40.6453V25.3567H29.8279V26.7327H24.962V31.7343H27.5003C28.4165 31.7343 29.1111 32.1056 29.584 32.8481C30.0643 33.5762 30.3045 34.6537 30.3045 36.0806C30.3045 37.5512 30.0459 38.6796 29.5286 39.4659C29.0187 40.2522 28.2835 40.6453 27.3229 40.6453H24.1529ZM24.962 39.3567H27.3118C28.0286 39.3567 28.568 39.0873 28.9301 38.5486C29.2995 37.9953 29.4843 37.1945 29.4843 36.1461C29.4843 34.0639 28.7601 33.0229 27.3118 33.0229H24.962V39.3567Z" fill="#165475" fill-opacity="0.5"/>
<path d="M30.5384 25.3567H31.4805L33.6862 31.4066L35.8808 25.3567H36.8451L34.1961 32.6953L37.0557 40.6453H36.0914L33.6862 34.0712L31.281 40.6453H30.3389L33.1874 32.7608L30.5384 25.3567Z" fill="#165475" fill-opacity="0.5"/>
<path d="M41.1789 40.7764C40.5951 40.7764 40.052 40.5871 39.5496 40.2085C39.0545 39.8154 38.6222 39.2694 38.2528 38.5704C37.8907 37.857 37.6062 37.0343 37.3993 36.1024C37.1998 35.156 37.1 34.1222 37.1 33.001C37.1 31.8799 37.1998 30.8533 37.3993 29.9215C37.6062 28.975 37.8907 28.1524 38.2528 27.4535C38.6222 26.74 39.0545 26.194 39.5496 25.8154C40.0447 25.4223 40.5878 25.2257 41.1789 25.2257C41.7627 25.2257 42.3021 25.4223 42.7971 25.8154C43.2922 26.194 43.7208 26.7327 44.0829 27.4316C44.4523 28.1305 44.7368 28.9532 44.9363 29.8996C45.1432 30.8461 45.2467 31.8799 45.2467 33.001C45.2467 34.1222 45.1432 35.156 44.9363 36.1024C44.7368 37.0489 44.4523 37.8715 44.0829 38.5704C43.7208 39.2694 43.2922 39.8154 42.7971 40.2085C42.3021 40.5871 41.7627 40.7764 41.1789 40.7764ZM41.1789 39.3349C41.6444 39.3349 42.073 39.182 42.4646 38.8762C42.8637 38.5559 43.2073 38.1118 43.4954 37.5439C43.791 36.9615 44.0201 36.2917 44.1826 35.5346C44.3452 34.7629 44.4265 33.9183 44.4265 33.001C44.4265 32.0837 44.3452 31.2465 44.1826 30.4893C44.0201 29.7176 43.791 29.0478 43.4954 28.48C43.2073 27.8976 42.8637 27.4535 42.4646 27.1477C42.073 26.8273 41.6444 26.6672 41.1789 26.6672C40.7134 26.6672 40.2811 26.8273 39.8821 27.1477C39.4831 27.4535 39.1358 27.8976 38.8402 28.48C38.552 29.0478 38.323 29.7176 38.153 30.4893C37.9904 31.2465 37.9092 32.0837 37.9092 33.001C37.9092 33.9038 37.9904 34.741 38.153 35.5127C38.323 36.2844 38.552 36.9615 38.8402 37.5439C39.1358 38.1118 39.4831 38.5559 39.8821 38.8762C40.2811 39.182 40.7134 39.3349 41.1789 39.3349Z" fill="#165475" fill-opacity="0.5"/>
<path d="M51.5873 39.8809V26.7545H47.8742L47.8077 30.4675C47.7855 31.6178 47.7486 32.7244 47.6968 33.7873C47.6525 34.8357 47.5786 35.7821 47.4752 36.6266C47.3791 37.4566 47.2461 38.1336 47.0761 38.6578C46.9136 39.182 46.6993 39.4878 46.4333 39.5751L45.5355 39.2475C45.831 39.2766 46.0749 39.0655 46.267 38.6141C46.4665 38.1627 46.618 37.5294 46.7214 36.714C46.8323 35.8986 46.9136 34.9449 46.9653 33.8528C47.017 32.7608 47.054 31.5814 47.0761 30.3146L47.1648 25.3567H52.3964V39.8809H51.5873ZM45.2473 44.0743L45.2584 39.2475H53.5602V44.0743H52.7954V40.6453H46.0232L46.0121 44.0743H45.2473Z" fill="#165475" fill-opacity="0.5"/>
<path d="M54.6791 40.6453V25.3567H55.4882V38.0244L60.4538 25.3567H61.1964V40.6453H60.3873V27.9995L55.4217 40.6453H54.6791Z" fill="#165475" fill-opacity="0.5"/>
<path d="M63.2604 40.6453V25.3567H63.9366L67.4834 37.2818H67.1287L70.6423 25.3567H71.3184V40.6453H70.5315V27.7811H70.7199L67.4834 38.7015H67.0955L63.8368 27.7811H64.0474V40.6453H63.2604Z" fill="#165475" fill-opacity="0.5"/>
<path d="M76.7816 40.7764C76.1978 40.7764 75.6547 40.5871 75.1522 40.2085C74.6572 39.8154 74.2249 39.2694 73.8554 38.5704C73.4933 37.857 73.2089 37.0343 73.002 36.1024C72.8025 35.156 72.7027 34.1222 72.7027 33.001C72.7027 31.8799 72.8025 30.8533 73.002 29.9215C73.2089 28.975 73.4933 28.1524 73.8554 27.4535C74.2249 26.74 74.6572 26.194 75.1522 25.8154C75.6473 25.4223 76.1904 25.2257 76.7816 25.2257C77.3653 25.2257 77.9047 25.4223 78.3998 25.8154C78.8949 26.194 79.3235 26.7327 79.6855 27.4316C80.055 28.1305 80.3395 28.9532 80.539 29.8996C80.7459 30.8461 80.8493 31.8799 80.8493 33.001C80.8493 34.1222 80.7459 35.156 80.539 36.1024C80.3395 37.0489 80.055 37.8715 79.6855 38.5704C79.3235 39.2694 78.8949 39.8154 78.3998 40.2085C77.9047 40.5871 77.3653 40.7764 76.7816 40.7764ZM76.7816 39.3349C77.2471 39.3349 77.6757 39.182 78.0673 38.8762C78.4663 38.5559 78.8099 38.1118 79.0981 37.5439C79.3937 36.9615 79.6227 36.2917 79.7853 35.5346C79.9479 34.7629 80.0291 33.9183 80.0291 33.001C80.0291 32.0837 79.9479 31.2465 79.7853 30.4893C79.6227 29.7176 79.3937 29.0478 79.0981 28.48C78.8099 27.8976 78.4663 27.4535 78.0673 27.1477C77.6757 26.8273 77.2471 26.6672 76.7816 26.6672C76.316 26.6672 75.8838 26.8273 75.4848 27.1477C75.0857 27.4535 74.7384 27.8976 74.4429 28.48C74.1547 29.0478 73.9256 29.7176 73.7557 30.4893C73.5931 31.2465 73.5118 32.0837 73.5118 33.001C73.5118 33.9038 73.5931 34.741 73.7557 35.5127C73.9256 36.2844 74.1547 36.9615 74.4429 37.5439C74.7384 38.1118 75.0857 38.5559 75.4848 38.8762C75.8838 39.182 76.316 39.3349 76.7816 39.3349Z" fill="#165475" fill-opacity="0.5"/>
<path d="M84.1916 40.6453V25.3567H90.7201V40.6453H89.9109V26.3177L90.1215 26.7545H84.7902L85.0008 26.3177V40.6453H84.1916Z" fill="#165475" fill-opacity="0.5"/>
<path d="M92.7838 40.6453V25.3567H95.6878C96.3455 25.3567 96.9107 25.5679 97.3836 25.9901C97.8566 26.3978 98.2186 26.9948 98.4699 27.7811C98.7285 28.5528 98.8578 29.4919 98.8578 30.5985C98.8578 31.676 98.7285 32.6079 98.4699 33.3942C98.2186 34.1659 97.8566 34.7629 97.3836 35.1851C96.9107 35.6074 96.3455 35.8185 95.6878 35.8185H93.2383L93.604 35.0541V40.6453H92.7838ZM93.604 35.1851L93.2383 34.3988H95.6656C96.4415 34.3988 97.029 34.0712 97.428 33.416C97.8344 32.7462 98.0376 31.8071 98.0376 30.5985C98.0376 29.3754 97.8344 28.429 97.428 27.7592C97.029 27.0894 96.4415 26.7545 95.6656 26.7545H93.2383L93.604 25.9901V35.1851Z" fill="#165475" fill-opacity="0.5"/>
<path d="M103.491 40.7764C102.907 40.7764 102.364 40.5871 101.861 40.2085C101.366 39.8154 100.934 39.2694 100.565 38.5704C100.202 37.857 99.918 37.0343 99.7111 36.1024C99.5116 35.156 99.4118 34.1222 99.4118 33.001C99.4118 31.8799 99.5116 30.8533 99.7111 29.9215C99.918 28.975 100.202 28.1524 100.565 27.4535C100.934 26.74 101.366 26.194 101.861 25.8154C102.356 25.4223 102.9 25.2257 103.491 25.2257C104.074 25.2257 104.614 25.4223 105.109 25.8154C105.604 26.194 106.033 26.7327 106.395 27.4316C106.764 28.1305 107.049 28.9532 107.248 29.8996C107.455 30.8461 107.558 31.8799 107.558 33.001C107.558 34.1222 107.455 35.156 107.248 36.1024C107.049 37.0489 106.764 37.8715 106.395 38.5704C106.033 39.2694 105.604 39.8154 105.109 40.2085C104.614 40.5871 104.074 40.7764 103.491 40.7764ZM103.491 39.3349C103.956 39.3349 104.385 39.182 104.776 38.8762C105.175 38.5559 105.519 38.1118 105.807 37.5439C106.103 36.9615 106.332 36.2917 106.494 35.5346C106.657 34.7629 106.738 33.9183 106.738 33.001C106.738 32.0837 106.657 31.2465 106.494 30.4893C106.332 29.7176 106.103 29.0478 105.807 28.48C105.519 27.8976 105.175 27.4535 104.776 27.1477C104.385 26.8273 103.956 26.6672 103.491 26.6672C103.025 26.6672 102.593 26.8273 102.194 27.1477C101.795 27.4535 101.448 27.8976 101.152 28.48C100.864 29.0478 100.635 29.7176 100.465 30.4893C100.302 31.2465 100.221 32.0837 100.221 33.001C100.221 33.9038 100.302 34.741 100.465 35.5127C100.635 36.2844 100.864 36.9615 101.152 37.5439C101.448 38.1118 101.795 38.5559 102.194 38.8762C102.593 39.182 103.025 39.3349 103.491 39.3349Z" fill="#165475" fill-opacity="0.5"/>
<path d="M114.271 40.6453L111.289 33.0229L111.954 32.2366L115.213 40.6453H114.271ZM108.962 40.6453V25.3567H109.76V40.6453H108.962ZM109.516 33.6344V32.2148H111.943V33.6344H109.516ZM112.021 33.1758L111.267 32.9137L114.16 25.3567H115.047L112.021 33.1758Z" fill="#165475" fill-opacity="0.5"/>
<path d="M119.311 40.7764C118.727 40.7764 118.184 40.5871 117.682 40.2085C117.187 39.8154 116.755 39.2694 116.385 38.5704C116.023 37.857 115.739 37.0343 115.532 36.1024C115.332 35.156 115.232 34.1222 115.232 33.001C115.232 31.8799 115.332 30.8533 115.532 29.9215C115.739 28.975 116.023 28.1524 116.385 27.4535C116.755 26.74 117.187 26.194 117.682 25.8154C118.177 25.4223 118.72 25.2257 119.311 25.2257C119.895 25.2257 120.434 25.4223 120.929 25.8154C121.425 26.194 121.853 26.7327 122.215 27.4316C122.585 28.1305 122.869 28.9532 123.069 29.8996C123.276 30.8461 123.379 31.8799 123.379 33.001C123.379 34.1222 123.276 35.156 123.069 36.1024C122.869 37.0489 122.585 37.8715 122.215 38.5704C121.853 39.2694 121.425 39.8154 120.929 40.2085C120.434 40.5871 119.895 40.7764 119.311 40.7764ZM119.311 39.3349C119.777 39.3349 120.205 39.182 120.597 38.8762C120.996 38.5559 121.34 38.1118 121.628 37.5439C121.923 36.9615 122.152 36.2917 122.315 35.5346C122.478 34.7629 122.559 33.9183 122.559 33.001C122.559 32.0837 122.478 31.2465 122.315 30.4893C122.152 29.7176 121.923 29.0478 121.628 28.48C121.34 27.8976 120.996 27.4535 120.597 27.1477C120.205 26.8273 119.777 26.6672 119.311 26.6672C118.846 26.6672 118.413 26.8273 118.014 27.1477C117.615 27.4535 117.268 27.8976 116.973 28.48C116.684 29.0478 116.455 29.7176 116.285 30.4893C116.123 31.2465 116.041 32.0837 116.041 33.001C116.041 33.9038 116.123 34.741 116.285 35.5127C116.455 36.2844 116.684 36.9615 116.973 37.5439C117.268 38.1118 117.615 38.5559 118.014 38.8762C118.413 39.182 118.846 39.3349 119.311 39.3349Z" fill="#165475" fill-opacity="0.5"/>
<path d="M130.457 25.3567H131.266V40.6453H130.457V25.3567ZM125.602 40.6453H124.782V25.3567H125.602V40.6453ZM130.535 33.5907H125.514V32.1711H130.535V33.5907Z" fill="#165475" fill-opacity="0.5"/>
<path d="M136.723 40.7764C136.139 40.7764 135.599 40.5871 135.104 40.2085C134.609 39.8154 134.181 39.2694 133.819 38.5704C133.457 37.8715 133.172 37.0489 132.965 36.1024C132.766 35.156 132.666 34.1222 132.666 33.001C132.666 31.8799 132.766 30.8461 132.965 29.8996C133.172 28.9532 133.457 28.1305 133.819 27.4316C134.188 26.7327 134.62 26.194 135.115 25.8154C135.611 25.4223 136.15 25.2257 136.734 25.2257C137.295 25.2257 137.824 25.415 138.319 25.7936C138.814 26.1576 139.231 26.7109 139.571 27.4535L139.05 28.48C138.732 27.8393 138.382 27.3806 137.997 27.104C137.613 26.8128 137.199 26.6672 136.756 26.6672C136.29 26.6672 135.858 26.8273 135.459 27.1477C135.06 27.4535 134.713 27.8976 134.417 28.48C134.122 29.0478 133.889 29.7176 133.719 30.4893C133.556 31.2465 133.475 32.0837 133.475 33.001C133.475 33.9183 133.556 34.7629 133.719 35.5346C133.889 36.2917 134.122 36.9615 134.417 37.5439C134.713 38.1118 135.06 38.5559 135.459 38.8762C135.858 39.182 136.29 39.3349 136.756 39.3349C137.199 39.3349 137.613 39.1893 137.997 38.8981C138.382 38.6068 138.732 38.1409 139.05 37.5002L139.571 38.5268C139.231 39.2694 138.814 39.8299 138.319 40.2085C137.824 40.5871 137.292 40.7764 136.723 40.7764Z" fill="#165475" fill-opacity="0.5"/>
<path d="M140.383 39.1383C140.76 39.4295 141.115 39.5023 141.447 39.3567C141.78 39.1965 142.086 38.6796 142.367 37.806L142.744 36.6266L142.821 36.43L145.792 25.3567H146.612L143.087 38.1555C142.851 39.0437 142.57 39.7062 142.245 40.143C141.927 40.5798 141.587 40.8128 141.225 40.8419C140.871 40.871 140.512 40.74 140.15 40.4488L140.383 39.1383ZM142.799 37.8934L139.441 25.3567H140.316L143.243 36.5611L142.799 37.8934Z" fill="#165475" fill-opacity="0.5"/>
<path d="M146.692 40.7764C146.589 40.7764 146.489 40.7618 146.393 40.7327C146.297 40.7181 146.189 40.6817 146.071 40.6235L146.138 39.182C146.263 39.2402 146.385 39.2694 146.504 39.2694C146.836 39.2694 147.102 39.0145 147.302 38.5049C147.508 37.9807 147.664 37.1799 147.767 36.1024C147.871 35.0104 147.937 33.6126 147.967 31.909L148.077 25.3567H153.342V40.6453H152.533V26.3177L152.744 26.7545H148.598L148.798 26.2959L148.698 31.8653C148.669 33.3942 148.613 34.7192 148.532 35.8403C148.451 36.9469 148.332 37.8715 148.177 38.6141C148.022 39.3422 147.823 39.8882 147.579 40.2522C147.335 40.6016 147.039 40.7764 146.692 40.7764Z" fill="#165475" fill-opacity="0.5"/>
<path d="M158.653 30.8169C159.569 30.8169 160.268 31.2246 160.748 32.04C161.236 32.8409 161.48 34.0348 161.48 35.6219C161.48 37.2673 161.221 38.5195 160.704 39.3786C160.186 40.2231 159.448 40.6453 158.487 40.6453H155.406V25.3567H156.215V30.8169H158.653ZM158.465 39.3567C159.182 39.3567 159.725 39.0437 160.094 38.4176C160.471 37.7915 160.659 36.8741 160.659 35.6656C160.659 34.4571 160.475 33.5689 160.105 33.001C159.736 32.4186 159.189 32.1274 158.465 32.1274H156.215V39.3567H158.465Z" fill="#165475" fill-opacity="0.5"/>
<path d="M163.547 40.6453V26.3177L163.769 26.7545H160.82V25.3567H167.083V26.7545H164.145L164.356 26.3177V40.6453H163.547Z" fill="#165475" fill-opacity="0.5"/>
<path d="M167.968 40.6453V25.3567H168.777V38.0244L173.743 25.3567H174.485V40.6453H173.676V27.9995L168.711 40.6453H167.968Z" fill="#165475" fill-opacity="0.5"/>
<path d="M176.549 40.6453V25.3567H179.453C180.111 25.3567 180.676 25.5679 181.149 25.9901C181.622 26.3978 181.984 26.9948 182.235 27.7811C182.494 28.5528 182.623 29.4919 182.623 30.5985C182.623 31.676 182.494 32.6079 182.235 33.3942C181.984 34.1659 181.622 34.7629 181.149 35.1851C180.676 35.6074 180.111 35.8185 179.453 35.8185H177.004L177.37 35.0541V40.6453H176.549ZM177.37 35.1851L177.004 34.3988H179.431C180.207 34.3988 180.795 34.0712 181.194 33.416C181.6 32.7462 181.803 31.8071 181.803 30.5985C181.803 29.3754 181.6 28.429 181.194 27.7592C180.795 27.0894 180.207 26.7545 179.431 26.7545H177.004L177.37 25.9901V35.1851Z" fill="#165475" fill-opacity="0.5"/>
<path d="M187.256 40.7764C186.673 40.7764 186.129 40.5871 185.627 40.2085C185.132 39.8154 184.7 39.2694 184.33 38.5704C183.968 37.857 183.684 37.0343 183.477 36.1024C183.277 35.156 183.177 34.1222 183.177 33.001C183.177 31.8799 183.277 30.8533 183.477 29.9215C183.684 28.975 183.968 28.1524 184.33 27.4535C184.7 26.74 185.132 26.194 185.627 25.8154C186.122 25.4223 186.665 25.2257 187.256 25.2257C187.84 25.2257 188.379 25.4223 188.875 25.8154C189.37 26.194 189.798 26.7327 190.16 27.4316C190.53 28.1305 190.814 28.9532 191.014 29.8996C191.221 30.8461 191.324 31.8799 191.324 33.001C191.324 34.1222 191.221 35.156 191.014 36.1024C190.814 37.0489 190.53 37.8715 190.16 38.5704C189.798 39.2694 189.37 39.8154 188.875 40.2085C188.379 40.5871 187.84 40.7764 187.256 40.7764ZM187.256 39.3349C187.722 39.3349 188.15 39.182 188.542 38.8762C188.941 38.5559 189.285 38.1118 189.573 37.5439C189.868 36.9615 190.097 36.2917 190.26 35.5346C190.423 34.7629 190.504 33.9183 190.504 33.001C190.504 32.0837 190.423 31.2465 190.26 30.4893C190.097 29.7176 189.868 29.0478 189.573 28.48C189.285 27.8976 188.941 27.4535 188.542 27.1477C188.15 26.8273 187.722 26.6672 187.256 26.6672C186.791 26.6672 186.359 26.8273 185.96 27.1477C185.56 27.4535 185.213 27.8976 184.918 28.48C184.629 29.0478 184.4 29.7176 184.23 30.4893C184.068 31.2465 183.987 32.0837 183.987 33.001C183.987 33.9038 184.068 34.741 184.23 35.5127C184.4 36.2844 184.629 36.9615 184.918 37.5439C185.213 38.1118 185.56 38.5559 185.96 38.8762C186.359 39.182 186.791 39.3349 187.256 39.3349Z" fill="#165475" fill-opacity="0.5"/>
<path d="M192.727 40.6453V25.3567H195.953C196.773 25.3567 197.416 25.6916 197.881 26.3614C198.354 27.0166 198.591 27.9849 198.591 29.2662C198.591 30.533 198.365 31.494 197.914 32.1492C197.464 32.7899 196.873 33.1102 196.141 33.1102L196.329 32.5642C197.194 32.5642 197.852 32.8991 198.302 33.5689C198.753 34.2387 198.978 35.2215 198.978 36.5174C198.978 37.8279 198.742 38.8471 198.269 39.5751C197.804 40.2886 197.102 40.6453 196.163 40.6453H192.727ZM193.536 39.3567H196.163C196.821 39.3567 197.32 39.1165 197.66 38.636C197.999 38.1555 198.169 37.4129 198.169 36.4082C198.169 35.4181 197.999 34.6901 197.66 34.2241C197.32 33.7582 196.821 33.5252 196.163 33.5252H193.536V39.3567ZM193.536 32.2803H195.908C196.507 32.2803 196.965 32.0473 197.283 31.5814C197.608 31.1009 197.77 30.3947 197.77 29.4628C197.77 28.5309 197.608 27.832 197.283 27.3661C196.965 26.8856 196.507 26.6453 195.908 26.6453H193.536V32.2803Z" fill="#165475" fill-opacity="0.5"/>
<path d="M199.333 40.6453L202.88 25.3567H203.689L207.236 40.6453H206.372L203.113 26.2959H203.446L200.187 40.6453H199.333ZM200.73 36.5611L200.974 35.2506H205.485L205.729 36.5611H200.73Z" fill="#165475" fill-opacity="0.5"/>
<path d="M209.32 40.6453V26.3177L209.542 26.7545H206.593V25.3567H212.856V26.7545H209.918L210.129 26.3177V40.6453H209.32Z" fill="#165475" fill-opacity="0.5"/>
<path d="M216.989 30.8169C217.905 30.8169 218.603 31.2246 219.084 32.04C219.571 32.8409 219.815 34.0348 219.815 35.6219C219.815 37.2673 219.556 38.5195 219.039 39.3786C218.522 40.2231 217.783 40.6453 216.822 40.6453H213.741V25.3567H214.55V30.8169H216.989ZM216.8 39.3567C217.517 39.3567 218.06 39.0437 218.43 38.4176C218.806 37.7915 218.995 36.8741 218.995 35.6656C218.995 34.4571 218.81 33.5689 218.441 33.001C218.071 32.4186 217.524 32.1274 216.8 32.1274H214.55V39.3567H216.8Z" fill="#165475" fill-opacity="0.5"/>
<path d="M224.448 40.7764C223.864 40.7764 223.325 40.5871 222.829 40.2085C222.334 39.8154 221.906 39.2694 221.544 38.5704C221.182 37.8715 220.897 37.0489 220.69 36.1024C220.491 35.156 220.391 34.1222 220.391 33.001C220.391 31.8799 220.491 30.8461 220.69 29.8996C220.897 28.9532 221.182 28.1305 221.544 27.4316C221.913 26.7327 222.345 26.194 222.841 25.8154C223.336 25.4223 223.875 25.2257 224.459 25.2257C225.02 25.2257 225.549 25.415 226.044 25.7936C226.539 26.1576 226.956 26.7109 227.296 27.4535L226.775 28.48C226.458 27.8393 226.107 27.3806 225.722 27.104C225.338 26.8128 224.924 26.6672 224.481 26.6672C224.015 26.6672 223.583 26.8273 223.184 27.1477C222.785 27.4535 222.438 27.8976 222.142 28.48C221.847 29.0478 221.614 29.7176 221.444 30.4893C221.281 31.2465 221.2 32.0837 221.2 33.001C221.2 33.9183 221.281 34.7629 221.444 35.5346C221.614 36.2917 221.847 36.9615 222.142 37.5439C222.438 38.1118 222.785 38.5559 223.184 38.8762C223.583 39.182 224.015 39.3349 224.481 39.3349C224.924 39.3349 225.338 39.1893 225.722 38.8981C226.107 38.6068 226.458 38.1409 226.775 37.5002L227.296 38.5268C226.956 39.2694 226.539 39.8299 226.044 40.2085C225.549 40.5871 225.017 40.7764 224.448 40.7764Z" fill="#165475" fill-opacity="0.5"/>
<path d="M232.93 40.6453V35.5782L233.151 36.0151H230.613C229.992 36.0151 229.46 35.8039 229.017 35.3817C228.581 34.9594 228.245 34.3624 228.008 33.5907C227.779 32.8045 227.665 31.8653 227.665 30.7733C227.665 29.6084 227.79 28.6256 228.042 27.8247C228.293 27.0094 228.648 26.3978 229.106 25.9901C229.571 25.5679 230.111 25.3567 230.724 25.3567H233.739V40.6453H232.93ZM227.665 40.6453L229.571 35.2725H230.414L228.54 40.6453H227.665ZM232.93 35.1196V26.2959L233.151 26.7545H230.757C230.033 26.7545 229.471 27.0967 229.072 27.7811C228.681 28.4509 228.485 29.4337 228.485 30.7296C228.485 31.9818 228.67 32.9501 229.039 33.6344C229.409 34.3042 229.955 34.6391 230.68 34.6391H233.151L232.93 35.1196Z" fill="#165475" fill-opacity="0.5"/>
<path d="M241.543 40.7764C240.96 40.7764 240.42 40.5871 239.925 40.2085C239.43 39.8154 239.001 39.2694 238.639 38.5704C238.277 37.8715 237.993 37.0489 237.786 36.1024C237.586 35.156 237.487 34.1222 237.487 33.001C237.487 31.8799 237.586 30.8461 237.786 29.8996C237.993 28.9532 238.277 28.1305 238.639 27.4316C239.009 26.7327 239.441 26.194 239.936 25.8154C240.431 25.4223 240.971 25.2257 241.554 25.2257C242.116 25.2257 242.644 25.415 243.139 25.7936C243.634 26.1576 244.052 26.7109 244.392 27.4535L243.871 28.48C243.553 27.8393 243.202 27.3806 242.818 27.104C242.434 26.8128 242.02 26.6672 241.577 26.6672C241.111 26.6672 240.679 26.8273 240.28 27.1477C239.881 27.4535 239.533 27.8976 239.238 28.48C238.942 29.0478 238.71 29.7176 238.54 30.4893C238.377 31.2465 238.296 32.0837 238.296 33.001C238.296 33.9183 238.377 34.7629 238.54 35.5346C238.71 36.2917 238.942 36.9615 239.238 37.5439C239.533 38.1118 239.881 38.5559 240.28 38.8762C240.679 39.182 241.111 39.3349 241.577 39.3349C242.02 39.3349 242.434 39.1893 242.818 38.8981C243.202 38.6068 243.553 38.1409 243.871 37.5002L244.392 38.5268C244.052 39.2694 243.634 39.8299 243.139 40.2085C242.644 40.5871 242.112 40.7764 241.543 40.7764Z" fill="#165475" fill-opacity="0.5"/>
<path d="M248.772 40.7764C248.188 40.7764 247.645 40.5871 247.143 40.2085C246.647 39.8154 246.215 39.2694 245.846 38.5704C245.484 37.857 245.199 37.0343 244.992 36.1024C244.793 35.156 244.693 34.1222 244.693 33.001C244.693 31.8799 244.793 30.8533 244.992 29.9215C245.199 28.975 245.484 28.1524 245.846 27.4535C246.215 26.74 246.647 26.194 247.143 25.8154C247.638 25.4223 248.181 25.2257 248.772 25.2257C249.356 25.2257 249.895 25.4223 250.39 25.8154C250.885 26.194 251.314 26.7327 251.676 27.4316C252.045 28.1305 252.33 28.9532 252.529 29.8996C252.736 30.8461 252.84 31.8799 252.84 33.001C252.84 34.1222 252.736 35.156 252.529 36.1024C252.33 37.0489 252.045 37.8715 251.676 38.5704C251.314 39.2694 250.885 39.8154 250.39 40.2085C249.895 40.5871 249.356 40.7764 248.772 40.7764ZM248.772 39.3349C249.237 39.3349 249.666 39.182 250.058 38.8762C250.457 38.5559 250.8 38.1118 251.088 37.5439C251.384 36.9615 251.613 36.2917 251.776 35.5346C251.938 34.7629 252.02 33.9183 252.02 33.001C252.02 32.0837 251.938 31.2465 251.776 30.4893C251.613 29.7176 251.384 29.0478 251.088 28.48C250.8 27.8976 250.457 27.4535 250.058 27.1477C249.666 26.8273 249.237 26.6672 248.772 26.6672C248.306 26.6672 247.874 26.8273 247.475 27.1477C247.076 27.4535 246.729 27.8976 246.433 28.48C246.145 29.0478 245.916 29.7176 245.746 30.4893C245.583 31.2465 245.502 32.0837 245.502 33.001C245.502 33.9038 245.583 34.741 245.746 35.5127C245.916 36.2844 246.145 36.9615 246.433 37.5439C246.729 38.1118 247.076 38.5559 247.475 38.8762C247.874 39.182 248.306 39.3349 248.772 39.3349Z" fill="#165475" fill-opacity="0.5"/>
<path d="M259.981 40.7764C259.397 40.7764 258.858 40.5871 258.363 40.2085C257.868 39.8154 257.439 39.2694 257.077 38.5704C256.715 37.8715 256.431 37.0489 256.224 36.1024C256.024 35.156 255.924 34.1222 255.924 33.001C255.924 31.8799 256.024 30.8461 256.224 29.8996C256.431 28.9532 256.715 28.1305 257.077 27.4316C257.447 26.7327 257.879 26.194 258.374 25.8154C258.869 25.4223 259.408 25.2257 259.992 25.2257C260.554 25.2257 261.082 25.415 261.577 25.7936C262.072 26.1576 262.49 26.7109 262.83 27.4535L262.309 28.48C261.991 27.8393 261.64 27.3806 261.256 27.104C260.872 26.8128 260.458 26.6672 260.014 26.6672C259.549 26.6672 259.117 26.8273 258.718 27.1477C258.319 27.4535 257.971 27.8976 257.676 28.48C257.38 29.0478 257.147 29.7176 256.977 30.4893C256.815 31.2465 256.734 32.0837 256.734 33.001C256.734 33.9183 256.815 34.7629 256.977 35.5346C257.147 36.2917 257.38 36.9615 257.676 37.5439C257.971 38.1118 258.319 38.5559 258.718 38.8762C259.117 39.182 259.549 39.3349 260.014 39.3349C260.458 39.3349 260.872 39.1893 261.256 38.8981C261.64 38.6068 261.991 38.1409 262.309 37.5002L262.83 38.5268C262.49 39.2694 262.072 39.8299 261.577 40.2085C261.082 40.5871 260.55 40.7764 259.981 40.7764Z" fill="#165475" fill-opacity="0.5"/>
<path d="M263.969 40.6453V25.3567H270.498V40.6453H269.689V26.3177L269.899 26.7545H264.568L264.778 26.3177V40.6453H263.969Z" fill="#165475" fill-opacity="0.5"/>
<path d="M273.293 32.1929H277.394V33.5689H273.293V32.1929ZM273.382 39.2475H278.048V40.6453H272.561V25.3567H277.882V26.7545H273.382V39.2475Z" fill="#165475" fill-opacity="0.5"/>
<path d="M279.314 40.6453V25.3567H280.123V39.2475H284.811V25.3567H285.62V40.6453H279.314ZM286.086 44.2272V40.2085L286.296 40.6453H284.811V39.2475H286.851V44.2272H286.086Z" fill="#165475" fill-opacity="0.5"/>
<path d="M287.927 40.6453V25.3567H288.737V38.0244L293.702 25.3567H294.445V40.6453H293.636V27.9995L288.67 40.6453H287.927Z" fill="#165475" fill-opacity="0.5"/>
<path d="M295.367 40.6453L298.914 25.3567H299.723L303.27 40.6453H302.405L299.147 26.2959H299.479L296.221 40.6453H295.367ZM296.764 36.5611L297.008 35.2506H301.519L301.763 36.5611H296.764Z" fill="#165475" fill-opacity="0.5"/>
<path d="M303.637 40.7764C303.534 40.7764 303.434 40.7618 303.338 40.7327C303.242 40.7181 303.135 40.6817 303.017 40.6235L303.083 39.182C303.209 39.2402 303.331 39.2694 303.449 39.2694C303.781 39.2694 304.047 39.0145 304.247 38.5049C304.454 37.9807 304.609 37.1799 304.712 36.1024C304.816 35.0104 304.882 33.6126 304.912 31.909L305.023 25.3567H310.288V40.6453H309.478V26.3177L309.689 26.7545H305.544L305.743 26.2959L305.643 31.8653C305.614 33.3942 305.558 34.7192 305.477 35.8403C305.396 36.9469 305.278 37.8715 305.122 38.6141C304.967 39.3422 304.768 39.8882 304.524 40.2522C304.28 40.6016 303.985 40.7764 303.637 40.7764Z" fill="#165475" fill-opacity="0.5"/>
<path d="M312.351 40.6453V25.3567H313.16V38.0244L318.126 25.3567H318.868V40.6453H318.059V27.9995L313.094 40.6453H312.351Z" fill="#165475" fill-opacity="0.5"/>
<path d="M324.324 40.7764C323.74 40.7764 323.201 40.5871 322.706 40.2085C322.211 39.8154 321.782 39.2694 321.42 38.5704C321.058 37.8715 320.773 37.0489 320.566 36.1024C320.367 35.156 320.267 34.1222 320.267 33.001C320.267 31.8799 320.367 30.8461 320.566 29.8996C320.773 28.9532 321.058 28.1305 321.42 27.4316C321.789 26.7327 322.222 26.194 322.717 25.8154C323.212 25.4223 323.751 25.2257 324.335 25.2257C324.897 25.2257 325.425 25.415 325.92 25.7936C326.415 26.1576 326.833 26.7109 327.172 27.4535L326.652 28.48C326.334 27.8393 325.983 27.3806 325.599 27.104C325.214 26.8128 324.801 26.6672 324.357 26.6672C323.892 26.6672 323.459 26.8273 323.06 27.1477C322.661 27.4535 322.314 27.8976 322.019 28.48C321.723 29.0478 321.49 29.7176 321.32 30.4893C321.158 31.2465 321.076 32.0837 321.076 33.001C321.076 33.9183 321.158 34.7629 321.32 35.5346C321.49 36.2917 321.723 36.9615 322.019 37.5439C322.314 38.1118 322.661 38.5559 323.06 38.8762C323.459 39.182 323.892 39.3349 324.357 39.3349C324.801 39.3349 325.214 39.1893 325.599 38.8981C325.983 38.6068 326.334 38.1409 326.652 37.5002L327.172 38.5268C326.833 39.2694 326.415 39.8299 325.92 40.2085C325.425 40.5871 324.893 40.7764 324.324 40.7764Z" fill="#165475" fill-opacity="0.5"/>
<path d="M329.755 40.6453V26.3177L329.977 26.7545H327.029V25.3567H333.291V26.7545H330.354L330.565 26.3177V40.6453H329.755Z" fill="#165475" fill-opacity="0.5"/>
<path d="M337.471 40.7764C336.887 40.7764 336.344 40.5871 335.842 40.2085C335.347 39.8154 334.914 39.2694 334.545 38.5704C334.183 37.857 333.898 37.0343 333.692 36.1024C333.492 35.156 333.392 34.1222 333.392 33.001C333.392 31.8799 333.492 30.8533 333.692 29.9215C333.898 28.975 334.183 28.1524 334.545 27.4535C334.914 26.74 335.347 26.194 335.842 25.8154C336.337 25.4223 336.88 25.2257 337.471 25.2257C338.055 25.2257 338.594 25.4223 339.089 25.8154C339.585 26.194 340.013 26.7327 340.375 27.4316C340.745 28.1305 341.029 28.9532 341.229 29.8996C341.436 30.8461 341.539 31.8799 341.539 33.001C341.539 34.1222 341.436 35.156 341.229 36.1024C341.029 37.0489 340.745 37.8715 340.375 38.5704C340.013 39.2694 339.585 39.8154 339.089 40.2085C338.594 40.5871 338.055 40.7764 337.471 40.7764ZM337.471 39.3349C337.937 39.3349 338.365 39.182 338.757 38.8762C339.156 38.5559 339.5 38.1118 339.788 37.5439C340.083 36.9615 340.312 36.2917 340.475 35.5346C340.637 34.7629 340.719 33.9183 340.719 33.001C340.719 32.0837 340.637 31.2465 340.475 30.4893C340.312 29.7176 340.083 29.0478 339.788 28.48C339.5 27.8976 339.156 27.4535 338.757 27.1477C338.365 26.8273 337.937 26.6672 337.471 26.6672C337.006 26.6672 336.573 26.8273 336.174 27.1477C335.775 27.4535 335.428 27.8976 335.132 28.48C334.844 29.0478 334.615 29.7176 334.445 30.4893C334.283 31.2465 334.201 32.0837 334.201 33.001C334.201 33.9038 334.283 34.741 334.445 35.5127C334.615 36.2844 334.844 36.9615 335.132 37.5439C335.428 38.1118 335.775 38.5559 336.174 38.8762C336.573 39.182 337.006 39.3349 337.471 39.3349Z" fill="#165475" fill-opacity="0.5"/>
<path d="M342.942 40.6453V25.3567H343.618L347.165 37.2818H346.81L350.324 25.3567H351V40.6453H350.213V27.7811H350.401L347.165 38.7015H346.777L343.518 27.7811H343.729V40.6453H342.942Z" fill="#165475" fill-opacity="0.5"/>
<path d="M281.79 6.9727H285.891V8.34867H281.79V6.9727ZM281.878 14.0273H286.545V15.4251H281.058V0.136513H286.378V1.53433H281.878V14.0273Z" fill="#165475" fill-opacity="0.5"/>
</svg>
