<svg width="20" height="20" viewBox="0 0 20 20" fill="none" xmlns="http://www.w3.org/2000/svg">
<g clip-path="url(#clip0_419_77)">
<path d="M4.81445 8.35712L8.44302 2.55712C8.58365 2.32788 8.78125 2.13896 9.01658 2.00878C9.25192 1.87859 9.51695 1.81158 9.78588 1.81426V1.81426C9.99768 1.80662 10.2089 1.84151 10.407 1.91687C10.605 1.99224 10.786 2.10655 10.9392 2.25304C11.0923 2.39954 11.2146 2.57525 11.2986 2.76979C11.3827 2.96434 11.427 3.17376 11.4287 3.38569V7.54284H17.7002C17.9319 7.55035 18.1594 7.60683 18.3678 7.70857C18.5761 7.8103 18.7606 7.95498 18.909 8.1331C19.0574 8.31122 19.1665 8.51873 19.229 8.74201C19.2915 8.96528 19.306 9.19926 19.2716 9.42855L18.1287 16.8C18.08 17.1939 17.889 17.5565 17.5918 17.8196C17.2945 18.0826 16.9114 18.2281 16.5145 18.2286H7.14302C6.69691 18.2303 6.25658 18.1276 5.85731 17.9286L4.82874 17.4143" stroke="white" stroke-width="1.5" stroke-linecap="round" stroke-linejoin="round"/>
<path d="M4.81445 8.35712V17.3714" stroke="white" stroke-width="1.5" stroke-linecap="round" stroke-linejoin="round"/>
<path d="M1.42864 8.35712H4.81436V17.3714H1.42864C1.2392 17.3714 1.05752 17.2961 0.923565 17.1622C0.78961 17.0282 0.714355 16.8466 0.714355 16.6571V9.0714C0.714355 8.88196 0.78961 8.70028 0.923565 8.56633C1.05752 8.43237 1.2392 8.35712 1.42864 8.35712V8.35712Z" stroke="white" stroke-width="1.5" stroke-linecap="round" stroke-linejoin="round"/>
</g>
<defs>
<clipPath id="clip0_419_77">
<rect width="20" height="20" fill="white"/>
</clipPath>
</defs>
</svg>
