<svg width="20" height="20" viewBox="0 0 20 20" fill="none" xmlns="http://www.w3.org/2000/svg">
<g clip-path="url(#clip0_419_53)">
<path d="M9.81431 13.5714C13.3647 13.5714 16.2429 10.6933 16.2429 7.14287C16.2429 3.59246 13.3647 0.714294 9.81431 0.714294C6.26391 0.714294 3.38574 3.59246 3.38574 7.14287C3.38574 10.6933 6.26391 13.5714 9.81431 13.5714Z" stroke="white" stroke-width="1.5" stroke-linecap="round" stroke-linejoin="round"/>
<path d="M9.81417 9.99999C11.3921 9.99999 12.6713 8.72081 12.6713 7.14285C12.6713 5.56489 11.3921 4.28571 9.81417 4.28571C8.23622 4.28571 6.95703 5.56489 6.95703 7.14285C6.95703 8.72081 8.23622 9.99999 9.81417 9.99999Z" stroke="white" stroke-width="1.5" stroke-linecap="round" stroke-linejoin="round"/>
<path d="M8.57135 13.4572L7.31421 18.7429C7.28933 18.8433 7.24333 18.9373 7.17929 19.0186C7.11525 19.0999 7.03462 19.1666 6.94278 19.2143C6.84585 19.2564 6.7413 19.2781 6.63563 19.2781C6.52997 19.2781 6.42542 19.2564 6.32849 19.2143L1.58564 17.1429C1.48615 17.0958 1.39861 17.0269 1.32959 16.9412C1.26057 16.8555 1.21186 16.7553 1.18711 16.648C1.16237 16.5408 1.16224 16.4294 1.18672 16.3221C1.21121 16.2148 1.25968 16.1145 1.32849 16.0286L4.99992 11.4286" stroke="white" stroke-width="1.5" stroke-linecap="round" stroke-linejoin="round"/>
<path d="M11.4285 13.3857L12.7142 18.7429C12.7397 18.845 12.7876 18.9403 12.8543 19.0218C12.9209 19.1033 13.0048 19.169 13.0999 19.2143C13.1942 19.2569 13.2964 19.2789 13.3999 19.2789C13.5034 19.2789 13.6056 19.2569 13.6999 19.2143L18.4142 17.1429C18.5152 17.0964 18.6039 17.027 18.6733 16.9402C18.7428 16.8534 18.791 16.7516 18.8142 16.6429C18.8413 16.5365 18.8424 16.4252 18.8176 16.3183C18.7927 16.2114 18.7426 16.1121 18.6713 16.0286L14.8428 11.1572" stroke="white" stroke-width="1.5" stroke-linecap="round" stroke-linejoin="round"/>
</g>
<defs>
<clipPath id="clip0_419_53">
<rect width="20" height="20" fill="white"/>
</clipPath>
</defs>
</svg>
