<svg width="20" height="20" viewBox="0 0 20 20" fill="none" xmlns="http://www.w3.org/2000/svg">
<g clip-path="url(#clip0_419_64)">
<path d="M7.143 7.14287C8.9182 7.14287 10.3573 5.70378 10.3573 3.92858C10.3573 2.15338 8.9182 0.714294 7.143 0.714294C5.3678 0.714294 3.92871 2.15338 3.92871 3.92858C3.92871 5.70378 5.3678 7.14287 7.143 7.14287Z" stroke="white" stroke-width="1.5" stroke-linecap="round" stroke-linejoin="round"/>
<path d="M8.57153 9.44284C7.62952 9.22536 6.65054 9.22364 5.70777 9.4378C4.765 9.65196 3.88283 10.0765 3.12723 10.6796C2.37162 11.2827 1.76213 12.0488 1.3443 12.9206C0.926483 13.7925 0.711145 14.7475 0.714392 15.7143V17.8571H8.57153" stroke="white" stroke-width="1.5" stroke-linecap="round" stroke-linejoin="round"/>
<path d="M15.2429 19.2429C15.086 19.2996 14.9141 19.2996 14.7572 19.2429C13.5658 18.7709 12.5435 17.9521 11.8227 16.8926C11.1019 15.833 10.7158 14.5815 10.7144 13.3V11.4286C10.708 11.3331 10.7222 11.2375 10.7559 11.1479C10.7895 11.0584 10.8419 10.9771 10.9095 10.9095C10.9772 10.8419 11.0585 10.7895 11.148 10.7558C11.2375 10.7221 11.3332 10.708 11.4286 10.7143H18.5715C18.6669 10.708 18.7626 10.7221 18.8521 10.7558C18.9417 10.7895 19.023 10.8419 19.0906 10.9095C19.1582 10.9771 19.2106 11.0584 19.2443 11.1479C19.2779 11.2375 19.2921 11.3331 19.2858 11.4286V13.3C19.2843 14.5815 18.8982 15.833 18.1774 16.8926C17.4566 17.9521 16.4343 18.7709 15.2429 19.2429V19.2429Z" stroke="white" stroke-width="1.5" stroke-linecap="round" stroke-linejoin="round"/>
</g>
<defs>
<clipPath id="clip0_419_64">
<rect width="20" height="20" fill="white"/>
</clipPath>
</defs>
</svg>
