<svg width="351" height="45" fill="none" xmlns="http://www.w3.org/2000/svg"><path d="M15.32 15.425V.137h.81v12.667L21.094.137h.742v15.288h-.809V2.78l-4.965 12.646h-.743Zm8.582 0V.137h.676l3.547 11.925h-.355L31.283.137h.677v15.288h-.787V2.561h.188l-3.236 10.92h-.388l-3.26-10.92h.212v12.864h-.787Zm10.85-8.452h4.1v1.376h-4.1V6.973Zm.088 7.054h4.666v1.398H34.02V.137h5.32v1.397h-4.5v12.493Zm5.932 1.398V.137h.81v6.792h2.005v1.463h-2.006v7.033h-.809Zm6.262.131c-.554 0-1.067-.19-1.54-.568-.466-.393-.876-.939-1.23-1.638-.348-.699-.617-1.521-.81-2.468a15.607 15.607 0 0 1-.288-3.101c0-1.121.096-2.155.288-3.102.193-.946.462-1.769.81-2.468.354-.699.764-1.237 1.23-1.616.473-.393.986-.59 1.54-.59.555 0 1.068.197 1.541.59.473.379.883.917 1.23 1.616.348.7.617 1.522.81 2.468.199.947.299 1.98.299 3.102 0 1.121-.1 2.155-.3 3.101-.192.947-.461 1.77-.809 2.468-.347.7-.757 1.245-1.23 1.638-.473.379-.986.568-1.54.568Zm0-1.441c.436 0 .84-.153 1.209-.459.376-.32.702-.764.975-1.332.273-.568.488-1.23.643-1.988a13 13 0 0 0 .233-2.555c0-.932-.078-1.777-.233-2.534-.155-.771-.37-1.441-.643-2.01-.273-.567-.599-1.004-.975-1.31-.37-.32-.773-.48-1.209-.48-.428 0-.83.16-1.208.48-.37.306-.69.743-.964 1.31-.273.569-.488 1.239-.643 2.01a12.664 12.664 0 0 0-.233 2.534 13 13 0 0 0 .233 2.555c.155.757.37 1.42.643 1.988.273.568.595 1.012.964 1.332.377.306.78.459 1.208.459Zm6.718 1.31V1.097l.221.437h-2.948V.137h6.262v1.397H54.35l.21-.437v14.328h-.808Zm7.704.131c-.583 0-1.123-.19-1.618-.568-.495-.393-.924-.939-1.286-1.638s-.646-1.521-.853-2.468c-.2-.946-.3-1.98-.3-3.101s.1-2.155.3-3.102c.207-.946.491-1.769.853-2.468.37-.699.802-1.237 1.297-1.616.495-.393 1.035-.59 1.618-.59.562 0 1.09.19 1.585.568.495.364.913.918 1.253 1.66l-.521 1.027c-.318-.64-.669-1.1-1.053-1.376a2.016 2.016 0 0 0-1.241-.437c-.466 0-.898.16-1.297.48-.4.306-.747.75-1.042 1.333-.296.568-.529 1.237-.698 2.01a11.983 11.983 0 0 0-.244 2.51c0 .918.081 1.763.244 2.534a8.57 8.57 0 0 0 .698 2.01c.295.568.643 1.012 1.042 1.332.399.306.831.459 1.297.459.443 0 .857-.146 1.241-.437.384-.291.735-.757 1.053-1.398l.52 1.027c-.339.742-.757 1.303-1.252 1.681-.495.379-1.027.568-1.596.568Zm8.482-.131v-5.067l.222.437h-2.538a2.232 2.232 0 0 1-1.596-.633c-.436-.423-.773-1.02-1.01-1.792-.228-.786-.343-1.725-.343-2.817 0-1.165.126-2.148.377-2.948.251-.816.606-1.427 1.064-1.835a2.336 2.336 0 0 1 1.618-.633h3.015v15.288h-.809Zm-5.265 0 1.907-5.373h.842l-1.873 5.373h-.876ZM69.938 9.9V1.076l.222.458h-2.394c-.724 0-1.286.342-1.685 1.027-.392.67-.588 1.652-.588 2.948 0 1.253.185 2.22.555 2.905.37.67.916 1.005 1.64 1.005h2.472l-.222.48Zm5.222 5.525V.137h6.529v15.288h-.81V1.097l.211.437h-5.33l.21-.437v14.328h-.809Zm8.592 0V.137h2.904a2.46 2.46 0 0 1 1.696.633c.473.408.835 1.005 1.086 1.79.26.773.388 1.712.388 2.818 0 1.078-.129 2.01-.388 2.796-.25.772-.613 1.369-1.086 1.79a2.46 2.46 0 0 1-1.696.634h-2.45l.367-.764v5.591h-.82Zm.82-5.46-.365-.786h2.427c.776 0 1.364-.328 1.763-.983.406-.67.61-1.61.61-2.818 0-1.223-.204-2.17-.61-2.839-.4-.67-.987-1.005-1.763-1.005h-2.427l.366-.764v9.195Zm9.888 5.591c-.584 0-1.128-.19-1.63-.568-.495-.393-.927-.939-1.297-1.638-.362-.713-.646-1.536-.853-2.468-.2-.946-.3-1.98-.3-3.101s.1-2.148.3-3.08c.207-.946.491-1.769.853-2.468.37-.713.802-1.26 1.297-1.638.495-.393 1.038-.59 1.63-.59.583 0 1.123.197 1.618.59.495.379.923.917 1.285 1.616.37.7.654 1.522.854 2.468.207.947.31 1.98.31 3.102 0 1.121-.103 2.155-.31 3.101-.2.947-.484 1.77-.854 2.468-.362.7-.79 1.245-1.285 1.638-.496.379-1.035.568-1.619.568Zm0-1.441c.465 0 .893-.153 1.285-.459.399-.32.743-.764 1.03-1.332a8.256 8.256 0 0 0 .688-2.01c.163-.771.244-1.616.244-2.533 0-.918-.081-1.755-.244-2.512-.162-.772-.392-1.441-.687-2.01-.288-.582-.632-1.026-1.031-1.332-.392-.32-.82-.48-1.286-.48-.465 0-.898.16-1.297.48-.399.306-.746.75-1.041 1.333-.289.568-.518 1.237-.688 2.01a11.983 11.983 0 0 0-.244 2.51c0 .904.082 1.74.244 2.513.17.771.4 1.448.688 2.03.295.569.642 1.013 1.041 1.333.4.306.832.459 1.297.459Zm6.903 1.31V1.097l.221.437h-2.948V.137h6.262v1.397h-2.937l.211-.437v14.328h-.809Zm4.421 0V.137h.809v12.667L111.559.137h.742v15.288h-.809V2.78l-4.966 12.646h-.742Zm8.581 0V.137h3.226c.82 0 1.463.334 1.928 1.004.473.655.71 1.624.71 2.905 0 1.267-.226 2.228-.677 2.883-.45.64-1.041.961-1.773.961l.188-.546c.865 0 1.523.335 1.973 1.005.451.67.676 1.652.676 2.948 0 1.31-.236 2.33-.709 3.058-.465.713-1.167 1.07-2.106 1.07h-3.436Zm.809-1.289h2.627c.658 0 1.157-.24 1.497-.72.339-.48.509-1.223.509-2.228 0-.99-.17-1.718-.509-2.184-.34-.466-.839-.699-1.497-.699h-2.627v5.832Zm0-7.076h2.372c.599 0 1.057-.233 1.375-.699.325-.48.487-1.187.487-2.118 0-.932-.162-1.631-.487-2.097-.318-.48-.776-.72-1.375-.72h-2.372V7.06Zm10.342 8.496c-.584 0-1.127-.19-1.63-.568-.495-.393-.927-.939-1.296-1.638-.362-.713-.647-1.536-.854-2.468a15.081 15.081 0 0 1-.299-3.101c0-1.121.1-2.148.299-3.08.207-.946.492-1.769.854-2.468.369-.713.801-1.26 1.296-1.638.496-.393 1.039-.59 1.63-.59.584 0 1.123.197 1.618.59.495.379.924.917 1.286 1.616.369.7.654 1.522.853 2.468.207.947.311 1.98.311 3.102 0 1.121-.104 2.155-.311 3.101-.199.947-.484 1.77-.853 2.468-.362.7-.791 1.245-1.286 1.638-.495.379-1.034.568-1.618.568Zm0-1.441c.465 0 .894-.153 1.286-.459.399-.32.742-.764 1.03-1.332a8.26 8.26 0 0 0 .688-2.01c.162-.771.243-1.616.243-2.533 0-.918-.081-1.755-.243-2.512-.163-.772-.392-1.441-.688-2.01-.288-.582-.631-1.026-1.03-1.332-.392-.32-.821-.48-1.286-.48-.466 0-.898.16-1.297.48-.399.306-.746.75-1.042 1.333-.288.568-.517 1.237-.687 2.01a11.956 11.956 0 0 0-.244 2.51c0 .904.081 1.74.244 2.513.17.771.399 1.448.687 2.03.296.569.643 1.013 1.042 1.333.399.306.831.459 1.297.459Zm5.471 1.31V.137h6.528v15.288h-.809V1.097l.211.437h-5.332l.211-.437v14.328h-.809Zm11.995.131c-.584 0-1.127-.19-1.63-.568-.495-.393-.927-.939-1.297-1.638-.362-.713-.646-1.536-.853-2.468-.2-.946-.299-1.98-.299-3.101s.099-2.148.299-3.08c.207-.946.491-1.769.853-2.468.37-.713.802-1.26 1.297-1.638.495-.393 1.038-.59 1.63-.59.583 0 1.123.197 1.618.59.495.379.924.917 1.286 1.616.369.7.654 1.522.853 2.468.207.947.31 1.98.31 3.102a14.52 14.52 0 0 1-.31 3.101c-.199.947-.484 1.77-.853 2.468-.362.7-.791 1.245-1.286 1.638-.495.379-1.035.568-1.618.568Zm0-1.441a2.04 2.04 0 0 0 1.285-.459c.399-.32.743-.764 1.031-1.332a8.218 8.218 0 0 0 .687-2.01 12.27 12.27 0 0 0 .244-2.533c0-.918-.081-1.755-.244-2.512-.162-.772-.391-1.441-.687-2.01-.288-.582-.632-1.026-1.031-1.332-.391-.32-.82-.48-1.285-.48-.466 0-.898.16-1.297.48-.399.306-.747.75-1.042 1.333-.288.568-.517 1.237-.687 2.01a11.956 11.956 0 0 0-.244 2.51c0 .904.081 1.74.244 2.513.17.771.399 1.448.687 2.03.295.569.643 1.013 1.042 1.333.399.306.831.459 1.297.459Zm10.78 1.31-2.982-7.622.665-.787 3.259 8.41h-.942Zm-5.31 0V.137h.799v15.288h-.799Zm.555-7.01v-1.42h2.427v1.42h-2.427Zm2.505-.46-.754-.262 2.893-7.556h.887l-3.026 7.819Z" fill="#165475" fill-opacity=".5"/><path d="M154.182 15.425 157.729.137h.809l3.547 15.288h-.865l-3.258-14.35h.332l-3.259 14.35h-.853Zm1.397-4.084.243-1.31h4.512l.243 1.31h-4.998Zm6.518 2.249.3-1.157c.34.582.72 1.02 1.141 1.31.429.277.857.423 1.286.437.429 0 .82-.124 1.175-.371.362-.248.654-.612.876-1.092.221-.495.332-1.092.332-1.791 0-.888-.181-1.573-.543-2.053-.355-.48-.85-.72-1.485-.72h-1.663V6.841h1.618c.547 0 .972-.226 1.275-.677.31-.466.466-1.107.466-1.922 0-.583-.089-1.078-.266-1.486-.17-.422-.407-.742-.71-.96a1.68 1.68 0 0 0-.997-.372c-.37-.029-.754.066-1.153.284-.392.204-.772.532-1.142.983l-.266-1.332c.458-.54.935-.91 1.43-1.114.495-.219.975-.292 1.441-.219a2.31 2.31 0 0 1 1.252.634c.377.35.677.808.898 1.376.222.568.333 1.245.333 2.03 0 .729-.096 1.37-.288 1.923-.185.553-.447.983-.787 1.288a1.742 1.742 0 0 1-1.186.437l.044-.48c.517 0 .964.16 1.341.48.384.32.68.78.887 1.376.214.583.321 1.267.321 2.053 0 .743-.096 1.405-.288 1.988-.185.568-.443 1.048-.776 1.441a3.02 3.02 0 0 1-1.097.83c-.406.16-.831.204-1.275.131-.443-.073-.879-.262-1.308-.568-.428-.32-.824-.779-1.186-1.375Zm6.271 1.835L171.915.137h.809l3.547 15.288h-.865l-3.258-14.35h.332l-3.259 14.35h-.853Zm1.397-4.084.243-1.31h4.512l.243 1.31h-4.998ZM182.878.137h.81v15.288h-.81V.137Zm-4.854 15.288h-.821V.137h.821v15.288Zm4.932-7.055h-5.021V6.95h5.021v1.42Zm2.796 7.055V.137h.809v12.667L191.527.137h.743v15.288h-.809V2.78l-4.966 12.646h-.743Zm13.27 0v-5.067l.222.437h-2.538a2.231 2.231 0 0 1-1.596-.633c-.436-.423-.773-1.02-1.009-1.792-.229-.786-.344-1.725-.344-2.817 0-1.165.126-2.148.377-2.948.251-.816.606-1.427 1.064-1.835a2.336 2.336 0 0 1 1.618-.633h3.015v15.288h-.809Zm-5.265 0 1.907-5.373h.842l-1.873 5.373h-.876Zm5.265-5.526V1.076l.222.458h-2.394c-.724 0-1.286.342-1.685 1.027-.392.67-.587 1.652-.587 2.948 0 1.253.184 2.22.554 2.905.369.67.916 1.005 1.64 1.005h2.472l-.222.48Zm2.743 5.635c-.163 0-.303-.116-.422-.35a1.984 1.984 0 0 1-.166-.85c0-.35.056-.634.166-.853.119-.218.259-.327.422-.327.162 0 .299.109.41.327.118.219.177.503.177.852 0 .335-.059.619-.177.852-.111.233-.248.35-.41.35Zm4.274-.109V.137h6.528v15.288h-.809V1.097l.211.437h-5.332l.211-.437v14.328h-.809Zm9.324-8.452h4.101v1.376h-4.101V6.973Zm.088 7.054h4.667v1.398h-5.487V.137h5.32v1.397h-4.5v12.493Zm5.932 1.398V.137h2.904a2.46 2.46 0 0 1 1.696.633c.473.408.835 1.005 1.086 1.79.259.773.388 1.712.388 2.818 0 1.078-.129 2.01-.388 2.796-.251.772-.613 1.369-1.086 1.79a2.46 2.46 0 0 1-1.696.634h-2.449l.365-.764v5.591h-.82Zm.82-5.46-.365-.786h2.427c.776 0 1.363-.328 1.762-.983.407-.67.61-1.61.61-2.818 0-1.223-.203-2.17-.61-2.839-.399-.67-.986-1.005-1.762-1.005h-2.427l.365-.764v9.195Zm7.108-2.992h4.101v1.376h-4.101V6.973Zm.088 7.054h4.667v1.398h-5.487V.137h5.32v1.397h-4.5v12.493Zm11.086.633V1.535h-3.713l-.067 3.713c-.022 1.15-.059 2.257-.11 3.32a36.591 36.591 0 0 1-.222 2.84c-.096.83-.229 1.506-.399 2.03-.163.525-.377.83-.643.918l-.898-.328c.296.03.54-.182.732-.633.199-.451.351-1.085.454-1.9.111-.816.192-1.77.244-2.861.052-1.092.089-2.272.111-3.539l.089-4.957h5.231V14.66h-.809Zm-6.34 4.194.011-4.827h8.302v4.827h-.765v-3.429h-6.772l-.011 3.43h-.765Zm11.779-3.429V.137h6.528v15.288h-.809V1.097l.21.437h-5.331l.211-.437v14.328h-.809Zm8.592 0V.137h2.904c.657 0 1.223.21 1.696.633.472.408.835 1.005 1.086 1.79.258.773.388 1.712.388 2.818 0 1.078-.13 2.01-.388 2.796-.251.772-.614 1.369-1.086 1.79a2.462 2.462 0 0 1-1.696.634h-2.45l.366-.764v5.591h-.82Zm.82-5.46-.366-.786h2.428c.775 0 1.363-.328 1.762-.983.406-.67.61-1.61.61-2.818 0-1.223-.204-2.17-.61-2.839-.399-.67-.987-1.005-1.762-1.005h-2.428l.366-.764v9.195Zm6.376 5.46V.137h.809v12.667L267.486.137h.743v15.288h-.809V2.78l-4.966 12.646h-.742Zm8.581 0V.137h.676l3.547 11.925h-.355L277.675.137h.676v15.288h-.787V2.561h.188l-3.236 10.92h-.388l-3.259-10.92h.211v12.864h-.787ZM294.668.137h.809v15.288h-.809V.137Zm-4.855 15.288h-.82V.137h.82v15.288Zm4.932-7.055h-5.021V6.95h5.021v1.42Zm3.528-1.397h4.101v1.376h-4.101V6.973Zm.089 7.054h4.666v1.398h-5.486V.137h5.32v1.397h-4.5v12.493ZM309.969.137h.809v15.288h-.809V.137Zm-4.855 15.288h-.82V.137h.82v15.288Zm4.932-7.055h-5.021V6.95h5.021v1.42Zm2.797 7.055V.137h.809v12.667L318.617.137h.743v15.288h-.809V2.78l-4.966 12.646h-.742Zm9.312-8.452h4.101v1.376h-4.101V6.973Zm.089 7.054h4.666v1.398h-5.486V.137h5.32v1.397h-4.5v12.493Zm5.932 1.398V.137h.676l3.547 11.925h-.355L335.558.137h.676v15.288h-.787V2.561h.188l-3.236 10.92h-.388l-3.259-10.92h.211v12.864h-.787ZM5.675 25.357h.81v15.288h-.81V25.357ZM.82 40.645H0V25.357h.82v15.288Zm4.933-7.054H.732v-1.42h5.02v1.42Zm3.527-1.398h4.102v1.376H9.28v-1.376Zm.09 7.055h4.665v1.397H8.55V25.357h5.32v1.398h-4.5v12.493Zm9.312 1.528c-.584 0-1.127-.189-1.63-.568-.494-.393-.927-.939-1.296-1.638-.362-.713-.647-1.536-.854-2.468-.199-.946-.299-1.98-.299-3.101s.1-2.148.3-3.08c.206-.946.49-1.769.853-2.468.37-.713.802-1.259 1.297-1.638.495-.393 1.038-.59 1.63-.59.583 0 1.122.197 1.617.59.495.379.924.918 1.286 1.617.37.699.654 1.521.854 2.468.206.946.31 1.98.31 3.101s-.104 2.155-.31 3.101c-.2.947-.485 1.77-.854 2.468-.362.7-.79 1.245-1.286 1.639-.495.378-1.034.567-1.618.567Zm0-1.441c.466 0 .894-.153 1.286-.459.399-.32.742-.764 1.03-1.332a8.261 8.261 0 0 0 .688-2.01 12.3 12.3 0 0 0 .244-2.533c0-.917-.082-1.754-.244-2.512-.163-.771-.392-1.441-.687-2.009-.289-.582-.632-1.027-1.031-1.332-.392-.32-.82-.48-1.286-.48-.465 0-.898.16-1.297.48-.399.305-.746.75-1.042 1.332-.288.568-.517 1.238-.687 2.01a11.983 11.983 0 0 0-.244 2.51c0 .903.082 1.74.244 2.512.17.771.4 1.449.687 2.03.296.569.643 1.013 1.042 1.333.4.306.831.459 1.297.459Zm5.471 1.31V25.357h5.675v1.376h-4.866v5.001H27.5c.916 0 1.611.372 2.084 1.114.48.728.72 1.806.72 3.233 0 1.47-.258 2.599-.775 3.385-.51.786-1.245 1.18-2.206 1.18h-3.17Zm.809-1.288h2.35c.717 0 1.256-.27 1.618-.808.37-.554.554-1.355.554-2.403 0-2.082-.724-3.123-2.172-3.123h-2.35v6.334Zm5.576-14h.942l2.206 6.05 2.195-6.05h.964l-2.649 7.338 2.86 7.95h-.965l-2.405-6.574-2.405 6.574h-.942l2.848-7.884-2.649-7.404Zm10.641 15.419c-.584 0-1.127-.189-1.63-.568-.495-.393-.927-.939-1.296-1.638-.362-.713-.647-1.536-.854-2.468-.2-.946-.299-1.98-.299-3.101s.1-2.148.3-3.08c.206-.946.49-1.769.853-2.468.37-.713.801-1.259 1.297-1.638.495-.393 1.038-.59 1.629-.59.584 0 1.123.197 1.618.59.495.379.924.918 1.286 1.617.37.699.654 1.521.853 2.468.207.946.31 1.98.31 3.101s-.103 2.155-.31 3.101c-.2.947-.484 1.77-.853 2.468-.362.7-.79 1.245-1.286 1.639-.495.378-1.034.567-1.618.567Zm0-1.441c.465 0 .894-.153 1.286-.459.399-.32.742-.764 1.03-1.332a8.257 8.257 0 0 0 .688-2.01c.162-.771.243-1.616.243-2.533 0-.917-.08-1.754-.243-2.512-.163-.771-.392-1.441-.688-2.009-.288-.582-.631-1.027-1.03-1.332-.392-.32-.82-.48-1.286-.48-.466 0-.898.16-1.297.48-.399.305-.746.75-1.042 1.332-.288.568-.517 1.238-.687 2.01a11.983 11.983 0 0 0-.244 2.51c0 .903.081 1.74.244 2.512a8.89 8.89 0 0 0 .687 2.03c.296.569.643 1.013 1.042 1.333.4.306.831.459 1.297.459Zm10.408.545V26.755h-3.713l-.066 3.713a113.12 113.12 0 0 1-.111 3.32 36.066 36.066 0 0 1-.222 2.84c-.096.83-.229 1.507-.399 2.03-.162.525-.377.83-.643.918l-.898-.328c.296.03.54-.181.732-.633.2-.451.351-1.085.454-1.9.111-.815.193-1.77.244-2.861.052-1.092.089-2.272.111-3.538l.089-4.958h5.231V39.88h-.809Zm-6.34 4.194.011-4.826h8.302v4.826h-.765v-3.429h-6.772l-.01 3.43h-.766Zm9.433-3.429V25.357h.808v12.667l4.966-12.667h.742v15.288h-.809V28l-4.965 12.646h-.743Zm8.58 0V25.357h.677l3.546 11.925h-.354l3.513-11.925h.676v15.288h-.787V27.781h.189l-3.237 10.92h-.388l-3.258-10.92h.21v12.864h-.787Zm13.522.131c-.584 0-1.127-.189-1.63-.568-.495-.393-.927-.939-1.297-1.638-.362-.713-.646-1.536-.853-2.468-.2-.946-.3-1.98-.3-3.101s.1-2.148.3-3.08c.207-.946.491-1.769.853-2.468.37-.713.802-1.259 1.297-1.638.495-.393 1.038-.59 1.63-.59.583 0 1.123.197 1.618.59.495.379.923.918 1.285 1.617.37.699.654 1.521.854 2.468.207.946.31 1.98.31 3.101s-.103 2.155-.31 3.101c-.2.947-.484 1.77-.853 2.468-.363.7-.791 1.245-1.286 1.639-.495.378-1.035.567-1.618.567Zm0-1.441a2.04 2.04 0 0 0 1.285-.459c.4-.32.743-.764 1.031-1.332a8.261 8.261 0 0 0 .687-2.01 12.3 12.3 0 0 0 .244-2.533c0-.917-.081-1.754-.244-2.512-.162-.771-.391-1.441-.687-2.009-.288-.582-.632-1.027-1.03-1.332-.392-.32-.82-.48-1.286-.48-.466 0-.898.16-1.297.48-.4.305-.747.75-1.042 1.332-.288.568-.517 1.238-.687 2.01a11.983 11.983 0 0 0-.244 2.51c0 .903.081 1.74.244 2.512.17.771.399 1.449.687 2.03.295.569.643 1.013 1.042 1.333.399.306.831.459 1.297.459Zm7.41 1.31V25.357h6.528v15.288h-.81V26.318l.212.436H84.79l.21-.436v14.327h-.808Zm8.592 0V25.357h2.904a2.46 2.46 0 0 1 1.696.633c.473.408.835 1.005 1.086 1.791.258.772.388 1.71.388 2.818 0 1.077-.13 2.009-.388 2.795-.251.772-.613 1.369-1.086 1.791a2.46 2.46 0 0 1-1.696.633h-2.45l.366-.764v5.591h-.82Zm.82-5.46-.366-.786h2.428c.776 0 1.363-.328 1.762-.983.406-.67.61-1.609.61-2.817 0-1.224-.204-2.17-.61-2.84-.399-.67-.986-1.005-1.762-1.005h-2.428l.366-.764v9.195Zm9.887 5.591c-.584 0-1.127-.189-1.63-.568-.495-.393-.927-.939-1.296-1.638-.363-.713-.647-1.536-.854-2.468-.2-.946-.3-1.98-.3-3.101s.1-2.148.3-3.08c.207-.946.491-1.769.854-2.468.369-.713.801-1.259 1.296-1.638.495-.393 1.039-.59 1.63-.59.583 0 1.123.197 1.618.59.495.379.924.918 1.286 1.617.369.699.654 1.521.853 2.468.207.946.31 1.98.31 3.101a14.52 14.52 0 0 1-.31 3.101c-.199.947-.484 1.77-.853 2.468-.362.7-.791 1.245-1.286 1.639-.495.378-1.035.567-1.618.567Zm0-1.441a2.04 2.04 0 0 0 1.285-.459c.399-.32.743-.764 1.031-1.332a8.219 8.219 0 0 0 .687-2.01c.163-.771.244-1.616.244-2.533 0-.917-.081-1.754-.244-2.512-.162-.771-.391-1.441-.687-2.009-.288-.582-.632-1.027-1.031-1.332-.391-.32-.82-.48-1.285-.48-.466 0-.898.16-1.297.48-.399.305-.746.75-1.042 1.332-.288.568-.517 1.238-.687 2.01a11.956 11.956 0 0 0-.244 2.511c0 .903.081 1.74.244 2.512.17.771.399 1.449.687 2.03.296.569.643 1.013 1.042 1.333.399.306.831.459 1.297.459Zm10.78 1.31-2.982-7.622.665-.786 3.259 8.408h-.942Zm-5.309 0V25.357h.798v15.288h-.798Zm.554-7.01v-1.42h2.427v1.42h-2.427Zm2.505-.46-.754-.261 2.893-7.557h.887l-3.026 7.819Zm7.29 7.601c-.584 0-1.127-.189-1.629-.568-.495-.393-.927-.939-1.297-1.638-.362-.713-.646-1.536-.853-2.468-.2-.946-.3-1.98-.3-3.101s.1-2.148.3-3.08c.207-.946.491-1.769.853-2.468.37-.713.802-1.259 1.297-1.638.495-.393 1.038-.59 1.629-.59.584 0 1.123.197 1.618.59.496.379.924.918 1.286 1.617.37.699.654 1.521.854 2.468.207.946.31 1.98.31 3.101a14.52 14.52 0 0 1-.31 3.101c-.2.947-.484 1.77-.854 2.468-.362.7-.79 1.245-1.286 1.639-.495.378-1.034.567-1.618.567Zm0-1.441c.466 0 .894-.153 1.286-.459.399-.32.743-.764 1.031-1.332a8.304 8.304 0 0 0 .687-2.01c.163-.771.244-1.616.244-2.533 0-.917-.081-1.754-.244-2.512-.163-.771-.392-1.441-.687-2.009-.288-.582-.632-1.027-1.031-1.332-.392-.32-.82-.48-1.286-.48-.465 0-.898.16-1.297.48-.399.305-.746.75-1.041 1.332-.289.568-.518 1.238-.688 2.01a12.023 12.023 0 0 0-.244 2.511c0 .903.082 1.74.244 2.512.17.771.399 1.449.688 2.03.295.569.642 1.013 1.041 1.333a2.09 2.09 0 0 0 1.297.459Zm11.146-13.978h.809v15.288h-.809V25.357Zm-4.855 15.288h-.82V25.357h.82v15.288Zm4.933-7.054h-5.021v-1.42h5.021v1.42Zm6.188 7.185c-.584 0-1.124-.189-1.619-.568-.495-.393-.923-.939-1.285-1.638-.362-.699-.647-1.521-.854-2.468a15.08 15.08 0 0 1-.299-3.101c0-1.121.1-2.155.299-3.101.207-.947.492-1.77.854-2.468.369-.7.801-1.238 1.296-1.617.496-.393 1.035-.59 1.619-.59.561 0 1.09.19 1.585.569.495.364.912.917 1.252 1.66l-.521 1.026c-.318-.64-.668-1.1-1.053-1.376a2.015 2.015 0 0 0-1.241-.437c-.466 0-.898.16-1.297.48-.399.306-.746.75-1.042 1.333-.295.568-.528 1.238-.698 2.01a11.956 11.956 0 0 0-.244 2.511c0 .917.081 1.762.244 2.534.17.757.403 1.427.698 2.009.296.568.643 1.012 1.042 1.332.399.306.831.459 1.297.459.443 0 .857-.146 1.241-.437.385-.291.735-.757 1.053-1.398l.521 1.027c-.34.742-.757 1.303-1.252 1.681-.495.38-1.027.568-1.596.568Zm3.66-1.638c.377.291.732.364 1.064.219.333-.16.639-.677.92-1.551l.377-1.18.077-.196 2.971-11.073h.82l-3.525 12.799c-.236.888-.517 1.55-.842 1.987-.318.437-.658.67-1.02.699-.354.029-.713-.102-1.075-.393l.233-1.31Zm2.416-1.245-3.358-12.536h.875l2.927 11.204-.444 1.332Zm3.893 2.883a1.03 1.03 0 0 1-.299-.043 1.126 1.126 0 0 1-.322-.11l.067-1.441a.864.864 0 0 0 .366.087c.332 0 .598-.255.798-.764.206-.524.362-1.325.465-2.403.104-1.092.17-2.49.2-4.193l.11-6.552h5.265v15.288h-.809V26.318l.211.436h-4.146l.2-.458-.1 5.57a76.064 76.064 0 0 1-.166 3.974c-.081 1.107-.2 2.031-.355 2.774-.155.728-.354 1.274-.598 1.638-.244.35-.54.524-.887.524Zm11.961-9.959c.916 0 1.615.408 2.095 1.223.488.8.732 1.995.732 3.582 0 1.645-.259 2.898-.776 3.757-.518.844-1.256 1.266-2.217 1.266h-3.081V25.357h.809v5.46h2.438Zm-.188 8.54c.717 0 1.26-.313 1.629-.94.377-.626.565-1.543.565-2.751 0-1.209-.184-2.097-.554-2.665-.369-.582-.916-.874-1.64-.874h-2.25v7.23h2.25Zm5.082 1.288V26.318l.222.436h-2.949v-1.397h6.263v1.398h-2.938l.211-.437v14.327h-.809Zm4.421 0V25.357h.809v12.667l4.966-12.667h.742v15.288h-.809V28l-4.965 12.646h-.743Zm8.581 0V25.357h2.904a2.46 2.46 0 0 1 1.696.633c.473.408.835 1.005 1.086 1.791.259.772.388 1.71.388 2.818 0 1.077-.129 2.009-.388 2.795-.251.772-.613 1.369-1.086 1.791a2.46 2.46 0 0 1-1.696.633h-2.449l.366-.764v5.591h-.821Zm.821-5.46-.366-.786h2.427c.776 0 1.364-.328 1.763-.983.406-.67.609-1.609.609-2.817 0-1.224-.203-2.17-.609-2.84-.399-.67-.987-1.005-1.763-1.005h-2.427l.366-.764v9.195Zm9.886 5.591c-.583 0-1.127-.189-1.629-.568-.495-.393-.927-.939-1.297-1.638-.362-.713-.646-1.536-.853-2.468-.2-.946-.3-1.98-.3-3.101s.1-2.148.3-3.08c.207-.946.491-1.769.853-2.468.37-.713.802-1.259 1.297-1.638.495-.393 1.038-.59 1.629-.59.584 0 1.123.197 1.619.59.495.379.923.918 1.285 1.617.37.699.654 1.521.854 2.468.207.946.31 1.98.31 3.101a14.52 14.52 0 0 1-.31 3.101c-.2.947-.484 1.77-.854 2.468-.362.7-.79 1.245-1.285 1.639-.496.378-1.035.567-1.619.567Zm0-1.441c.466 0 .894-.153 1.286-.459.399-.32.743-.764 1.031-1.332a8.304 8.304 0 0 0 .687-2.01c.163-.771.244-1.616.244-2.533 0-.917-.081-1.754-.244-2.512-.163-.771-.392-1.441-.687-2.009-.288-.582-.632-1.027-1.031-1.332-.392-.32-.82-.48-1.286-.48-.465 0-.897.16-1.296.48-.4.305-.747.75-1.042 1.332-.289.568-.518 1.238-.688 2.01a12.026 12.026 0 0 0-.243 2.511c0 .903.081 1.74.243 2.512.17.771.399 1.449.688 2.03.295.569.642 1.013 1.042 1.333.399.306.831.459 1.296.459Zm5.471 1.31V25.357h3.226c.82 0 1.463.335 1.928 1.004.473.656.71 1.624.71 2.905 0 1.267-.226 2.228-.677 2.883-.45.64-1.041.961-1.773.961l.188-.546c.865 0 1.523.335 1.973 1.005.451.67.676 1.652.676 2.948 0 1.31-.236 2.33-.709 3.058-.465.714-1.167 1.07-2.106 1.07h-3.436Zm.809-1.288h2.627c.658 0 1.157-.24 1.497-.721.339-.48.509-1.223.509-2.228 0-.99-.17-1.718-.509-2.184-.34-.466-.839-.699-1.497-.699h-2.627v5.832Zm0-7.077h2.372c.599 0 1.057-.233 1.375-.699.325-.48.487-1.186.487-2.118 0-.932-.162-1.631-.487-2.097-.318-.48-.776-.72-1.375-.72h-2.372v5.634Zm5.797 8.365 3.547-15.288h.809l3.547 15.288h-.864l-3.259-14.35h.333l-3.259 14.35h-.854Zm1.397-4.084.244-1.31h4.511l.244 1.31h-4.999Zm8.59 4.084V26.318l.222.436h-2.949v-1.397h6.263v1.398h-2.938l.211-.437v14.327h-.809Zm7.669-9.828c.916 0 1.614.408 2.095 1.223.487.8.731 1.995.731 3.582 0 1.645-.259 2.898-.776 3.757-.517.844-1.256 1.266-2.217 1.266h-3.081V25.357h.809v5.46h2.439Zm-.189 8.54c.717 0 1.26-.313 1.63-.94.376-.626.565-1.543.565-2.751 0-1.209-.185-2.097-.554-2.665-.37-.582-.917-.874-1.641-.874h-2.25v7.23h2.25Zm7.648 1.419c-.584 0-1.123-.189-1.619-.568-.495-.393-.923-.939-1.285-1.638-.362-.699-.647-1.521-.854-2.468a15.08 15.08 0 0 1-.299-3.101c0-1.121.1-2.155.299-3.101.207-.947.492-1.77.854-2.468.369-.7.801-1.238 1.297-1.617.495-.393 1.034-.59 1.618-.59.561 0 1.09.19 1.585.569.495.364.912.917 1.252 1.66l-.521 1.026c-.317-.64-.668-1.1-1.053-1.376a2.015 2.015 0 0 0-1.241-.437c-.466 0-.898.16-1.297.48-.399.306-.746.75-1.042 1.333-.295.568-.528 1.238-.698 2.01A11.956 11.956 0 0 0 221.2 33c0 .917.081 1.762.244 2.534.17.757.403 1.427.698 2.009.296.568.643 1.012 1.042 1.332.399.306.831.459 1.297.459.443 0 .857-.146 1.241-.437.385-.291.736-.757 1.053-1.398l.521 1.027c-.34.742-.757 1.303-1.252 1.681-.495.38-1.027.568-1.596.568Zm8.482-.131v-5.067l.221.437h-2.538a2.231 2.231 0 0 1-1.596-.633c-.436-.423-.772-1.02-1.009-1.791-.229-.787-.343-1.726-.343-2.818 0-1.165.125-2.147.377-2.948.251-.816.606-1.427 1.064-1.835a2.335 2.335 0 0 1 1.618-.633h3.015v15.288h-.809Zm-5.265 0 1.906-5.373h.843l-1.874 5.373h-.875Zm5.265-5.525v-8.824l.221.459h-2.394c-.724 0-1.286.342-1.685 1.026-.391.67-.587 1.653-.587 2.949 0 1.252.185 2.22.554 2.904.37.67.916 1.005 1.641 1.005h2.471l-.221.48Zm8.613 5.656c-.583 0-1.123-.189-1.618-.568-.495-.393-.924-.939-1.286-1.638s-.646-1.521-.853-2.468c-.2-.946-.299-1.98-.299-3.101s.099-2.155.299-3.101c.207-.947.491-1.77.853-2.468.37-.7.802-1.238 1.297-1.617.495-.393 1.035-.59 1.618-.59.562 0 1.09.19 1.585.569.495.364.913.917 1.253 1.66l-.521 1.026c-.318-.64-.669-1.1-1.053-1.376a2.015 2.015 0 0 0-1.241-.437c-.466 0-.898.16-1.297.48-.399.306-.747.75-1.042 1.333-.296.568-.528 1.238-.698 2.01a11.956 11.956 0 0 0-.244 2.511c0 .917.081 1.762.244 2.534.17.757.402 1.427.698 2.009.295.568.643 1.012 1.042 1.332.399.306.831.459 1.297.459.443 0 .857-.146 1.241-.437.384-.291.735-.757 1.053-1.398l.521 1.027c-.34.742-.758 1.303-1.253 1.681-.495.38-1.027.568-1.596.568Zm7.229 0c-.584 0-1.127-.189-1.629-.568-.496-.393-.928-.939-1.297-1.638-.362-.713-.647-1.536-.854-2.468a15.08 15.08 0 0 1-.299-3.101c0-1.121.1-2.148.299-3.08.207-.946.492-1.769.854-2.468.369-.713.801-1.259 1.297-1.638.495-.393 1.038-.59 1.629-.59.584 0 1.123.197 1.618.59.495.379.924.918 1.286 1.617.369.699.654 1.521.853 2.468.207.946.311 1.98.311 3.101s-.104 2.155-.311 3.101c-.199.947-.484 1.77-.853 2.468-.362.7-.791 1.245-1.286 1.639-.495.378-1.034.567-1.618.567Zm0-1.441c.465 0 .894-.153 1.286-.459.399-.32.742-.764 1.03-1.332a8.261 8.261 0 0 0 .688-2.01 12.34 12.34 0 0 0 .244-2.533c0-.917-.082-1.754-.244-2.512-.163-.771-.392-1.441-.688-2.009-.288-.582-.631-1.027-1.03-1.332-.392-.32-.821-.48-1.286-.48-.466 0-.898.16-1.297.48-.399.305-.746.75-1.042 1.332-.288.568-.517 1.238-.687 2.01a11.956 11.956 0 0 0-.244 2.511c0 .903.081 1.74.244 2.512.17.771.399 1.449.687 2.03.296.569.643 1.013 1.042 1.333.399.306.831.459 1.297.459Zm11.209 1.441c-.584 0-1.123-.189-1.618-.568-.495-.393-.924-.939-1.286-1.638s-.646-1.521-.853-2.468c-.2-.946-.3-1.98-.3-3.101s.1-2.155.3-3.101c.207-.947.491-1.77.853-2.468.37-.7.802-1.238 1.297-1.617.495-.393 1.034-.59 1.618-.59.562 0 1.09.19 1.585.569.495.364.913.917 1.253 1.66l-.521 1.026c-.318-.64-.669-1.1-1.053-1.376a2.015 2.015 0 0 0-1.242-.437c-.465 0-.897.16-1.296.48-.399.306-.747.75-1.042 1.333-.296.568-.529 1.238-.699 2.01a12.026 12.026 0 0 0-.243 2.511c0 .917.081 1.762.243 2.534.17.757.403 1.427.699 2.009.295.568.643 1.012 1.042 1.332.399.306.831.459 1.296.459.444 0 .858-.146 1.242-.437.384-.291.735-.757 1.053-1.398l.521 1.027c-.34.742-.758 1.303-1.253 1.681-.495.38-1.027.568-1.596.568Zm3.988-.131V25.357h6.529v15.288h-.809V26.318l.21.436h-5.331l.21-.436v14.327h-.809Zm9.324-8.452h4.101v1.376h-4.101v-1.376Zm.089 7.055h4.666v1.397h-5.487V25.357h5.321v1.398h-4.5v12.493Zm5.932 1.397V25.357h.809v13.89h4.688v-13.89h.809v15.288h-6.306Zm6.772 3.582V40.21l.21.436h-1.485v-1.398h2.04v4.98h-.765Zm1.841-3.582V25.357h.81v12.667l4.965-12.667h.743v15.288h-.809V28l-4.966 12.646h-.743Zm7.44 0 3.547-15.288h.809l3.547 15.288h-.865l-3.258-14.35h.332l-3.258 14.35h-.854Zm1.397-4.084.244-1.31h4.511l.244 1.31h-4.999Z" fill="#165475" fill-opacity=".5"/><path d="M303.637 40.776a1.03 1.03 0 0 1-.299-.043 1.12 1.12 0 0 1-.321-.11l.066-1.441a.87.87 0 0 0 .366.087c.332 0 .598-.255.798-.764.207-.524.362-1.325.465-2.403.104-1.092.17-2.49.2-4.193l.111-6.552h5.265v15.288h-.81V26.318l.211.436h-4.145l.199-.458-.1 5.57a76.064 76.064 0 0 1-.166 3.974c-.081 1.107-.199 2.031-.355 2.774-.155.728-.354 1.274-.598 1.638-.244.35-.539.524-.887.524Zm8.714-.131V25.357h.809v12.667l4.966-12.667h.742v15.288h-.809V28l-4.965 12.646h-.743Zm11.973.131c-.584 0-1.123-.189-1.618-.568-.495-.393-.924-.939-1.286-1.638s-.647-1.521-.854-2.468a15.08 15.08 0 0 1-.299-3.101c0-1.121.1-2.155.299-3.101.207-.947.492-1.77.854-2.468.369-.7.802-1.238 1.297-1.617.495-.393 1.034-.59 1.618-.59.562 0 1.09.19 1.585.569.495.364.913.917 1.252 1.66l-.52 1.026c-.318-.64-.669-1.1-1.053-1.376-.385-.291-.798-.437-1.242-.437-.465 0-.898.16-1.297.48-.399.306-.746.75-1.041 1.333-.296.568-.529 1.238-.699 2.01a12.023 12.023 0 0 0-.244 2.511c0 .917.082 1.762.244 2.534.17.757.403 1.427.699 2.009.295.568.642 1.012 1.041 1.332a2.09 2.09 0 0 0 1.297.459c.444 0 .857-.146 1.242-.437.384-.291.735-.757 1.053-1.398l.52 1.027c-.339.742-.757 1.303-1.252 1.681-.495.38-1.027.568-1.596.568Z" fill="#165475" fill-opacity=".5"/><path d="M329.755 40.645V26.318l.222.436h-2.948v-1.397h6.262v1.398h-2.937l.211-.437v14.327h-.81Zm7.716.131c-.584 0-1.127-.189-1.629-.568-.495-.393-.928-.939-1.297-1.638-.362-.713-.647-1.536-.853-2.468-.2-.946-.3-1.98-.3-3.101s.1-2.148.3-3.08c.206-.946.491-1.769.853-2.468.369-.713.802-1.259 1.297-1.638.495-.393 1.038-.59 1.629-.59.584 0 1.123.197 1.618.59.496.379.924.918 1.286 1.617.37.699.654 1.521.854 2.468.207.946.31 1.98.31 3.101a14.52 14.52 0 0 1-.31 3.101c-.2.947-.484 1.77-.854 2.468-.362.7-.79 1.245-1.286 1.639-.495.378-1.034.567-1.618.567Zm0-1.441c.466 0 .894-.153 1.286-.459.399-.32.743-.764 1.031-1.332a8.304 8.304 0 0 0 .687-2.01 12.34 12.34 0 0 0 .244-2.533c0-.917-.082-1.754-.244-2.512-.163-.771-.392-1.441-.687-2.009-.288-.582-.632-1.027-1.031-1.332-.392-.32-.82-.48-1.286-.48-.465 0-.898.16-1.297.48-.399.305-.746.75-1.042 1.332-.288.568-.517 1.238-.687 2.01a12.023 12.023 0 0 0-.244 2.511c0 .903.082 1.74.244 2.512.17.771.399 1.449.687 2.03.296.569.643 1.013 1.042 1.333a2.09 2.09 0 0 0 1.297.459Zm5.471 1.31V25.357h.676l3.547 11.925h-.355l3.514-11.925H351v15.288h-.787V27.781h.188l-3.236 10.92h-.388l-3.259-10.92h.211v12.864h-.787ZM281.79 6.973h4.101v1.376h-4.101V6.973Zm.088 7.054h4.667v1.398h-5.487V.137h5.32v1.397h-4.5v12.493Z" fill="#165475" fill-opacity=".5"/></svg>