<svg width="20" height="20" fill="none" xmlns="http://www.w3.org/2000/svg"><g clip-path="url(#a)" stroke="#fff" stroke-width="1.5" stroke-linecap="round" stroke-linejoin="round"><path d="m4.814 8.357 3.629-5.8a1.557 1.557 0 0 1 1.343-.743v0a1.586 1.586 0 0 1 1.643 1.572v4.157H17.7a1.643 1.643 0 0 1 1.572 1.886L18.129 16.8a1.629 1.629 0 0 1-1.614 1.429H7.143a2.858 2.858 0 0 1-1.286-.3l-1.028-.515m-.015-9.057v9.014M1.429 8.357h3.385v9.014H1.43a.715.715 0 0 1-.715-.714V9.071a.714.714 0 0 1 .715-.714v0Z"/></g><defs><clipPath id="a"><path fill="#fff" d="M0 0h20v20H0z"/></clipPath></defs></svg>