<svg width="20" height="20" fill="none" xmlns="http://www.w3.org/2000/svg"><g clip-path="url(#a)" stroke="#fff" stroke-width="1.5" stroke-linecap="round" stroke-linejoin="round"><path d="M9.814 13.571a6.429 6.429 0 1 0 0-12.857 6.429 6.429 0 0 0 0 12.857Z"/><path d="M9.814 10a2.857 2.857 0 1 0 0-5.714 2.857 2.857 0 0 0 0 5.714Zm-1.243 3.457-1.257 5.286a.729.729 0 0 1-.371.471.771.771 0 0 1-.615 0l-4.742-2.071a.73.73 0 0 1-.258-1.114L5 11.429m6.428 1.957 1.286 5.357a.714.714 0 0 0 .386.471.728.728 0 0 0 .6 0l4.714-2.071a.714.714 0 0 0 .4-.5.686.686 0 0 0-.143-.614l-3.828-4.872"/></g><defs><clipPath id="a"><path fill="#fff" d="M0 0h20v20H0z"/></clipPath></defs></svg>