<svg width="20" height="20" fill="none" xmlns="http://www.w3.org/2000/svg"><g clip-path="url(#a)" stroke="#fff" stroke-width="1.5" stroke-linecap="round" stroke-linejoin="round"><path d="M7.143 7.143a3.214 3.214 0 1 0 0-6.429 3.214 3.214 0 0 0 0 6.429Zm1.429 2.3a6.414 6.414 0 0 0-7.858 6.271v2.143h7.858m6.671 1.386a.715.715 0 0 1-.486 0 6.4 6.4 0 0 1-4.043-5.943v-1.871a.67.67 0 0 1 .715-.715h7.143a.67.67 0 0 1 .714.715V13.3a6.4 6.4 0 0 1-4.043 5.943v0Z"/></g><defs><clipPath id="a"><path fill="#fff" d="M0 0h20v20H0z"/></clipPath></defs></svg>